<?xml version="1.0" standalone="no"?>
<!DOCTYPE svg PUBLIC "-//W3C//DTD SVG 1.1//EN" "http://www.w3.org/Graphics/SVG/1.1/DTD/svg11.dtd" >
<!--
2013-9-30: Created.
-->
<svg>
<metadata>
Created by iconfont
</metadata>
<defs>

<font id="iconfont" horiz-adv-x="1024" >
  <font-face
    font-family="iconfont"
    font-weight="500"
    font-stretch="normal"
    units-per-em="1024"
    ascent="896"
    descent="-128"
  />
    <missing-glyph />
    
    <glyph glyph-name="x" unicode="x" horiz-adv-x="1001"
d="M281 543q-27 -1 -53 -1h-83q-18 0 -36.5 -6t-32.5 -18.5t-23 -32t-9 -45.5v-76h912v41q0 16 -0.5 30t-0.5 18q0 13 -5 29t-17 29.5t-31.5 22.5t-49.5 9h-133v-97h-438v97zM955 310v-52q0 -23 0.5 -52t0.5 -58t-10.5 -47.5t-26 -30t-33 -16t-31.5 -4.5q-14 -1 -29.5 -0.5
t-29.5 0.5h-32l-45 128h-439l-44 -128h-29h-34q-20 0 -45 1q-25 0 -41 9.5t-25.5 23t-13.5 29.5t-4 30v167h911zM163 247q-12 0 -21 -8.5t-9 -21.5t9 -21.5t21 -8.5q13 0 22 8.5t9 21.5t-9 21.5t-22 8.5zM316 123q-8 -26 -14 -48q-5 -19 -10.5 -37t-7.5 -25t-3 -15t1 -14.5
t9.5 -10.5t21.5 -4h37h67h81h80h64h36q23 0 34 12t2 38q-5 13 -9.5 30.5t-9.5 34.5q-5 19 -11 39h-368zM336 498v228q0 11 2.5 23t10 21.5t20.5 15.5t34 6h188q31 0 51.5 -14.5t20.5 -52.5v-227h-327z" />
    

    
    <glyph glyph-name="gouwuche" unicode="&#58890;" d="M339.008 35.008q19.008 0 36-7.008t30.016-19.488 20-29.504 7.008-36-7.008-36-20-29.504-30.016-20-36-7.488q-20 0-36.512 7.488t-29.504 20-20 29.504-7.008 36 7.008 36 20 29.504 29.504 19.488 36.512 7.008zM755.008 32.992q19.008 0 36.512-7.008t30.016-19.488 20-29.504 7.488-36-7.488-36-20-29.504-30.016-20-36.512-7.488-36 7.488-29.504 20-20 29.504-7.488 36 7.488 36 20 29.504 29.504 19.488 36 7.008zM923.008 600.992q28 0 43.488-7.488t22.016-18.496 6.016-23.488-3.488-21.504-12.512-36.992-21.504-61.504-23.488-66.496-17.504-52q-12.992-40-32.992-55.488t-48.992-15.488l-524.992 0 15.008-90.016 504 0q48 0 48-40.992 0-20-9.504-34.496t-37.504-14.496l-524 0q-20 0-33.504 8.992t-22.496 23.488-14.496 31.488-8.512 32q-0.992 6.016-5.504 28.992t-11.008 57.504-14.496 76.992-16 85.504q-19.008 100.992-43.008 224.992l-75.008 0q-15.008 0-24.992 7.488t-16.512 18.016-8.992 22.496-2.496 22.016q0 20 13.504 32.992t36.512 12.992l100.992 0q20 0 32-6.016t19.008-15.008 10.016-19.008 4.992-16.992q2.016-8 4-22.496t4-29.504q3.008-18.016 6.016-38.016l684 0z"  horiz-adv-x="1024" />

    
    <glyph glyph-name="QQ" unicode="&#58887;" d="M915.826 246.311l-2.168 15.502-2.773 15.123-2.203 7.77-2.127 8.264-2.813 7.884-2.888 8.777-3.307 8.264-3.608 8.493-6.422 13.869-5.7 12.217-5.699 10.923-4.978 10.186-5.699 9.27-4.179 8.512-8.853 12.711-11.135 16.928-2.583 4.179-0.874 1.786v1.407l1.862 5.718 2.583 5.092 2.242 10.050 1.254 5.187v5.358l0.647 4.313v4.332l-0.647 4.977-0.722 4.066-1.635 8.246-2.128 8.017-1.938 7.353-3.039 7.145-3.42 5.965-2.699 5.603-3.001 5.338-4.713 7.867-1.747 2.791-0.533 2.432-2.166 15.257-1.405 10.051-1.596 12.443-2.469 12.862-3.876 14.743-2.203 8.264-1.75 6.992-2.431 8.132-2.736 8.645-2.736 8.018-3.496 8.626-7.142 16.662-4.218 7.884-5.093 9.043-4.787 7.751-4.789 8.778-6.764 8.133-5.698 7.884-6.953 8.132-7.067 7.372-7.146 7.124-8.473 7.391-4.446 2.659-4.217 3.686-9.119 6.478-10.563 7.011-10.793 6.346-11.133 5.718-12.158 5.225-11.4 4.958-11.894 4.332-12.995 3.553-11.893 3.173-12.653 2.774-11.969 2.926-12.918 1.405-12.654 1.539-12.613 1.653h-37.771l-12.804-0.742-23.977-3.325-12.158-2.033-12.045-2.299-11.399-2.792-11.399-3.685-10.601-3.686-10.601-3.552-10.64-5.224-10.032-4.199-8.892-5.092-9.272-5.718-8.55-5.966-8.435-6.725-6.953-6.251-10.905-10.279-9.044-9.556-8.663-9.272-7.942-9.424-7.447-9.652-6.535-9.404-6.345-9.404-2.963-4.199-2.736-5.092-5.928-8.911-4.712-8.892-4.179-8.396-3.649-8.893-3.572-8.131-2.963-7.639-2.736-8.131-2.775-7.505-3.686-13.604-2.697-13.091-1.482-10.942-1.521-9.424v-18.295l-2.584-2.813-2.356-3.819-1.862-3.419-1.597-3.685-2.014-8.018-2.204-7.373-0.722-6.593-0.494-4.844v-5.206l-5.093-7.39-3.609-7.373-2.736-7.105-2.015-6.364-1.557-6.099-1.483-5.737v-14.611l0.874-3.553 1.253-6.498 1.558-4.958-2.812-2.166-7.98-5.966-10.525-9.651-6.46-5.72-6.307-5.604-4.332-4.465-3.572-3.933-7.676-8.263-7.296-8.264-5.7-7.125-6.84-10.298-6.534-9.27-6.46-10.317-5.434-9.537-4.522-10.147-4.789-9.422-3.496-9.273-3.685-9.669-2.736-9.404-2.698-9.67-2.393-8.398-1.33-9.025-1.482-8.378-1.254-8.15-0.758-15.883v-21.354l0.758-6.498 2.016-11.059 0.721-4.864 1.33-4.939 1.634-4.676 1.521-3.304 2.432-6.118 1.863-1.254 1.139-2.583 1.445-0.608h1.482l6.346 0.608 6.46 1.671 5.434 2.168 5.7 3.685 5.206 3.42 4.712 4.484 5.092 4.674 4.295 4.827 4.103 5.471 3.724 4.942 3.496 4.101 2.166 4.713 4.255 7.752 1.329 3.173 0.759 1.899 0.379 2.167 0.989 1.786 0.759 0.38 1.445 0.761h0.911l0.38-0.761h0.722l0.723-0.38 2.393-10.544 2.584-8.513 3.458-8.929 3.495-8.017 2.927-7.981 4.522-6.99 3.305-7.373 3.725-6.762 4.293-5.851 3.268-5.625 8.663-10.411 7.562-9.273 7.296-7.221 7.182-6.498 6.232-5.092 9.272-8.246 3.724-1.823 1.253-1.748v-0.874l-0.873-0.798h-0.38l-1.863-0.608-6.953-0.532-6.459-0.874-5.435-0.76-5.7-1.253-4.978-1.558-4.94-1.521-4.332-2.318-3.419-2.129-4.372-1.405-2.736-2.28-2.926-1.786-3.155-2.544-3.952-4.942-1.482-2.318-1.823-2.014-2.509-5.207-1.367-4.333-1.636-4.329-0.342-3.801v-7.143l-0.722-3.533v-3.61l-0.874-3.533v-3.155l0.874-3.457 0.722-3.077 1.977-5.929 1.367-2.812 1.748-2.811 1.938-2.774 2.128-2.434 2.851-2.773 2.128-2.28 6.307-4.713 6.346-3.951 7.258-3.572 7.827-3.191 8.283-3.419 9.196-2.13 9.158-3.077 9.917-2.053 9.879-1.482 10.183-1.559 10.525-1.521 20.748-2.165 21.392-0.38h37.884l9.271 0.38 7.942 0.909 7.675 0.608 7.182 0.646 11.552 2.281 8.32 2.28 7.905 2.053 14.59 6.116 6.612 2.51 6.307 3.191 10.414 5.85 9.384 4.714 6.954 4.445 5.092 4.715 14.097-1.559 12.158-0.875h10.525l3.686-0.759 3.762-1.522 5.965-2.163 6.648-2.282 12.654-3.952 12.918-4.711 12.578-3.648 12.691-2.586 12.957-3.267 13.414-1.938 12.728-1.405 12.768-1.786 11.932-1.141 12.767-0.72h35.415l11.398 1.366 11.172 0.495 10.753 1.786 9.917 2.203 9.918 2.13 9.501 2.278 3.949 1.141 4.409 1.445 8.247 3.267 7.333 3.42 6.915 3.572 6.459 3.723 5.7 4.293 2.242 2.319 2.698 3.153 3.457 4.218 3.761 5.206 1.37 2.623 0.608 2.202 1.596 2.813 0.608 3.040v2.927l0.761 2.925-0.761 4.293-0.608 3.686-1.596 4.332-1.254 3.572-2.356 4.333-2.848 3.95-2.736 3.42-3.686 2.888-7.6 6.612-8.512 6.383-8.588 5.091-9.044 5.207-20.67 10.184-4.941 3.040-1.367 1.405-0.876 0.911 9.957 10.033 4.295 4.94 3.571 4.561 6.953 10.070 6.574 10.298 5.548 9.157 5.243 8.778 7.029 17.554 5.472 14.591 3.608 10.335 2.091 3.421 1.253 2.774 2.167 1.672h0.911l0.608-0.382 5.319-10.563 4.75-10.183 3.343-5.739 3.457-4.939 3.421-6.080 4.408-6.006 3.685-4.179 2.243-2.278 2.204-2.054 2.015-1.518 1.939-1.407 4.254-2.167 2.204-0.759h3.457l2.243 0.759 2.775 1.407 3.078 1.407 2.544 2.278 2.393 2.662 2.698 3.306 2.128 2.544 2.395 4.105 1.788 3.304 2.127 4.676 1.139 3.951 3.079 9.652 2.013 10.678 1.443 11.837 0.988 6.877v19.323z"  horiz-adv-x="1024" />

    
    <glyph glyph-name="shafa" unicode="&#58888;" d="M373.659648 353.1712l277.671936 0c37.262336 0 67.584 30.316544 67.584 67.580928L718.915584 637.240064c0 37.267456-30.321664 67.591168-67.584 67.591168L373.659648 704.831232c-37.264384 0-67.580928-30.323712-67.580928-67.591168l0-216.487936C306.07872 383.487744 336.395264 353.1712 373.659648 353.1712L373.659648 353.1712zM351.946752 637.240064c0 11.979776 9.744384 21.723136 21.712896 21.723136l277.671936 0c11.966464 0 21.711872-9.74336 21.711872-21.723136l0-216.487936c0-11.968512-9.746432-21.712896-21.711872-21.712896L373.659648 399.039232c-11.968512 0-21.712896 9.744384-21.712896 21.712896L351.946752 637.240064 351.946752 637.240064zM837.851136 444.907264l-44.6464 0c-38.890496 0-74.298368-33.339392-74.298368-69.951488l0-40.972288c-6.849536 2.343936-14.071808 3.900416-21.705728 3.900416L327.78752 337.883904c-7.635968 0-14.864384-1.55648-21.715968-3.904512l0 40.976384c0 38.576128-29.320192 69.951488-65.348608 69.951488l-44.647424 0c-38.45632 0-73.488384-33.339392-73.488384-69.951488l0-371.270656c0-35.390464 33.911808-78.629888 73.488384-78.629888l48.843776 0 0-30.579712 61.159424 0 0 30.579712 428.123136 0 0-30.579712 61.162496 0 0 30.579712 42.487808 0c38.032384 0 64.5376 41.43616 64.5376 78.629888L902.38976 374.955776C902.38976 414.180096 874.039296 444.907264 837.851136 444.907264L837.851136 444.907264zM306.07872 270.286592c0 11.984896 9.740288 21.72416 21.7088 21.72416l369.414144 0c11.943936 0 21.665792-9.703424 21.705728-21.648384l0-109.618176c-0.039936-11.945984-9.761792-21.632-21.705728-21.632L327.78752 139.112192c-11.968512 0-21.7088 9.730048-21.7088 21.705728L306.07872 270.286592 306.07872 270.286592zM856.517632 3.68512c0 0-0.008192-32.761856-32.770048-32.761856L201.22112-29.076736c-32.761856 0-32.761856 32.761856-32.761856 32.761856L168.459264 374.955776c0 11.251712 14.707712 24.083456 27.616256 24.083456l44.643328 0c12.036096 0 19.480576-12.50304 19.480576-24.083456 0 0 0.01024-245.846016 0-250.476544 0-31.238144 31.22176-31.238144 31.22176-31.238144l36.366336 0 369.414144 0 36.33152 0c0 0 31.246336 0 31.246336 31.238144 0 21.403648 0 36.265984 0 36.265984 0 0.029696 0.006144 0.04608 0.006144 0.073728L764.785664 270.290688c0 0.021504-0.006144 0.048128-0.006144 0.07168L764.77952 374.955776c0 11.027456 15.408128 24.083456 28.42624 24.083456l44.6464 0c11.681792 0 18.666496-12.243968 18.666496-24.083456L856.518656 3.68512 856.517632 3.68512z"  horiz-adv-x="1024" />

    
    <glyph glyph-name="icorategood" unicode="&#58885;" d="M843.348992 242.088704c56.192 0 84.288512 168.577024 0 168.577024-28.096512 0-168.576 0-168.576 0 168.576 280.96 46.533632 337.152 0 337.152 0-142.741504-209.910784-301.797376-421.440512-365.248512l0-449.529856-56.192 0 0 449.536 56.192 0 0 28.096512-112.384 0c-30.906368 0-56.192-37.929984-56.192-84.288512l0-337.153024c0-46.357504 25.285632-84.287488 56.192-84.287488l112.384 0 0 28.090368c239.4624-24.889344 155.97568-84.288512 393.344-84.288512 56.192 0 112.384 28.096512 112.384 84.288512 56.192 0 84.288512 140.479488 56.192 140.479488C871.44448 73.512704 907.442176 242.088704 843.348992 242.088704z"  horiz-adv-x="1024" />

    
    <glyph glyph-name="shijian" unicode="&#59004;" d="M511.998 833.979c-248.529 0-449.994-201.462-449.994-449.979 0-248.519 201.467-449.978 449.994-449.978 248.528 0 449.997 201.459 449.997 449.978 0 248.518-201.47 449.979-449.997 449.979zM511.998-25.072c-225.937 0-409.088 183.162-409.088 409.072 0 225.949 183.151 409.071 409.088 409.071 225.937 0 409.087-183.124 409.087-409.071 0-225.907-183.151-409.072-409.087-409.072zM736.997 383.998h-204.547v265.897c0 11.304-9.166 20.453-20.453 20.453-11.286 0-20.454-9.147-20.454-20.453v-286.348c0-11.286 9.17-20.453 20.454-20.453h224.999c11.285 0 20.454 9.168 20.454 20.453-0.002 11.302-9.17 20.452-20.454 20.452z"  horiz-adv-x="1024" />

    
    <glyph glyph-name="weixin" unicode="&#58883;" d="M669.029 535.938c10.181 0 20.236-0.748 30.238-1.865-27.167 126.533-162.436 220.531-316.852 220.531-172.618 0-314.035-117.66-314.035-267.067 0-86.242 47.044-157.061 125.674-211.988l-31.407-94.468 109.755 55.053c39.303-7.781 70.81-15.765 110.011-15.765 9.85 0 19.625 0.482 29.323 1.243-6.144 20.996-9.698 42.983-9.698 65.792 0.002 137.197 117.807 248.533 266.991 248.533zM500.168 621.077c23.639 0 39.303-15.55 39.303-39.185 0-23.536-15.664-39.3-39.303-39.3-23.536 0-47.147 15.765-47.147 39.3 0.001 23.635 23.612 39.185 47.147 39.185zM280.403 542.59c-23.537 0-47.3 15.765-47.3 39.3 0 23.635 23.764 39.185 47.3 39.185 23.535 0 39.2-15.55 39.2-39.185 0-23.535-15.665-39.3-39.2-39.3zM955.618 291.187c0 125.543-125.622 227.882-266.734 227.882-149.413 0-267.091-102.339-267.091-227.882 0-125.77 117.678-227.879 267.091-227.879 31.279 0 62.838 7.897 94.243 15.765l86.12-47.17-23.613 78.473c63.041 47.286 109.983 109.993 109.983 180.811zM602.307 330.475c-15.639 0-31.431 15.549-31.431 31.417 0 15.651 15.792 31.405 31.431 31.405 23.74 0 39.303-15.755 39.303-31.405 0-15.867-15.563-31.417-39.303-31.417zM775.028 330.475c-15.539 0-31.202 15.549-31.202 31.417 0 15.651 15.664 31.405 31.202 31.405 23.536 0 39.301-15.755 39.301-31.405 0.001-15.867-15.765-31.417-39.301-31.417z"  horiz-adv-x="1024" />

    
    <glyph glyph-name="ttpodicon" unicode="&#59036;" d="M531.649526-1.997102 531.649526 431.295302c0 13.262048-10.743692 23.981181-23.981181 23.981181-13.261025 0-23.981181-10.719132-23.981181-23.981181l0-433.29138c0-13.237489 10.720156-23.981181 23.981181-23.981181C520.905834-25.978283 531.649526-15.234591 531.649526-1.997102zM827.193659 497.627033c-13.094226 1.127683-24.341385-9.904581-24.796756-23.11751l-19.760043-572.454884L236.464573-97.945361c-0.048095 0-2.37407-0.023536-2.422166-0.023536l-1.367137 0-19.760043 572.47842c-0.455371 13.237489-11.943007 24.26873-24.796756 23.11751-13.237489-0.431835-23.597441-11.534707-23.14207-24.772196l20.575618-595.59593c0.215918-6.090718 2.734274-11.870352 7.074116-16.163121 6.186909-6.138814 7.578606-7.074116 29.857005-7.074116 3.957125 0 8.56098 0.048095 13.981433 0.048095l563.485605-0.023536c11.174504-0.455371 29.161157 3.213181 30.071899 30.216185l20.311605 588.593446C850.790076 486.092325 840.430124 497.195198 827.193659 497.627033zM382.486274 40.090459 382.486274 389.207741c0 13.262048-10.743692 23.981181-23.981181 23.981181s-23.981181-10.719132-23.981181-23.981181l0-349.118306c0-13.237489 10.743692-23.981181 23.981181-23.981181S382.486274 26.85297 382.486274 40.090459zM632.825856 40.090459c0-13.237489 10.743692-23.981181 24.00574-23.981181 13.237489 0 23.981181 10.743692 23.981181 23.981181l0 43.669592c0 13.237489-10.743692 23.981181-23.981181 23.981181-13.262048 0-24.00574-10.743692-24.00574-23.981181L632.825856 40.090459zM656.830573 147.021863c13.237489 0 23.981181 10.743692 23.981181 23.981181L680.811754 389.207741c0 13.262048-10.743692 23.981181-23.981181 23.981181-13.262048 0-24.00574-10.719132-24.00574-23.981181l0-218.204697C632.825856 157.765555 643.568525 147.021863 656.830573 147.021863zM882.924961 647.317287 628.916826 647.317287c-4.748141 23.620977-16.451694 45.468564-34.125215 63.11855-23.52581 23.549346-54.509475 36.499285-87.195921 36.499285-58.82578 0-109.617583-43.621497-121.17685-99.617835L132.386146 647.317287c-13.237489 0-23.981181-10.743692-23.981181-23.981181 0-13.262048 10.743692-23.981181 23.981181-23.981181L407.54602 599.354925c0.119727 0 0.239454-0.071631 0.360204-0.071631 0.119727 0 0.215918 0.071631 0.335644 0.071631l198.707644 0c0.144286 0 0.239454-0.071631 0.360204-0.071631 0.119727 0 0.215918 0.071631 0.335644 0.071631l275.2796 0c13.237489 0 23.981181 10.719132 23.981181 23.981181C906.906142 636.573595 896.16245 647.317287 882.924961 647.317287zM436.323437 647.317287c10.359952 29.592992 38.633902 51.655474 71.272253 51.655474 19.880793 0 38.801724-7.961322 53.286624-22.470781 8.441253-8.417717 14.365172-18.441001 18.081821-29.184693L436.323437 647.317287z"  horiz-adv-x="1024" />

    
    <glyph glyph-name="iconfontweibowukuang" unicode="&#58977;" d="M726.639616 341.219072c-34.779136 6.721536-17.844224 25.089024-17.844224 25.089024s34.0224 55.405568-6.805504 95.729664c-50.499584 49.878016-173.428736-6.276096-173.428736-6.276096-46.876672-14.332928-34.47808 6.572032-27.824128 42.116096 0 41.965568-14.518272 112.899072-139.563008 71.084032-124.894208-42.262528-232.09984-189.958144-232.09984-189.958144C54.53312 280.886016 64.361472 205.020928 64.361472 205.020928c18.59584-167.56224 198.98368-213.557248 339.3024-224.461824 147.576832-11.348992 346.865664 50.182144 407.1936 176.822272C871.343104 284.172032 761.566208 334.35008 726.639616 341.219072L726.639616 341.219072zM414.550016 27.752192c-146.518016-6.718464-265.061376 65.71008-265.061376 162.184192 0 96.623616 118.54336 173.983744 265.061376 180.70528 146.668544 6.718464 265.36448-53.0176 265.36448-149.341184C679.914496 124.9728 561.21856 34.324224 414.550016 27.752192L414.550016 27.752192zM385.36704 307.169024c-147.42528-17.022976-130.337792-153.224192-130.337792-153.224192s-1.509376-43.159552 39.467008-65.114112c86.182912-46.144512 175.092736-18.215936 219.848704 38.980608C559.25248 184.858368 532.944896 324.045568 385.36704 307.169024L385.36704 307.169024zM348.17024 115.862272c-27.515904-3.135488-49.742848 12.547072-49.742848 35.248128 0 22.550528 19.653632 46.296064 47.172608 49.130496 31.603712 2.989056 52.166656-14.93504 52.166656-37.782528C397.918208 139.90784 375.538688 118.99776 348.17024 115.862272L348.17024 115.862272zM435.116032 188.891904c-9.376768-6.868992-20.866048-5.97504-25.70752 2.387968-5.14048 8.067072-3.1744 20.91008 6.201344 27.628544 10.88512 8.067072 22.226944 5.673984 27.215872-2.387968C447.6672 208.453376 444.186624 196.061952 435.116032 188.891904L435.116032 188.891904zM798.45888 400.210688c11.945984 0 21.926912 8.659968 23.740416 20.007936 0.152576 0.897024 0.300032 1.645568 0.300032 2.542592 17.9968 159.645696-132.604928 132.164608-132.604928 132.164608-13.30688 0-24.040448-10.600448-24.040448-24.041472 0-13.144064 10.733568-23.748608 24.040448-23.748608 108.111872 23.59808 84.374528-83.17952 84.374528-83.17952C774.117376 410.81216 785.002496 400.210688 798.45888 400.210688L798.45888 400.210688zM780.918784 678.882048c-52.013056 12.095488-105.693184 1.640448-120.662016-1.195008-1.209344-0.150528-2.266112-1.19808-3.32288-1.344512-0.456704-0.150528-0.908288-0.596992-0.908288-0.596992-14.81728-4.184064-25.554944-17.62304-25.554944-33.60256 0-18.967552 15.572992-34.646016 35.078144-34.646016 0 0 18.900992 2.538496 31.756288 7.465984 12.698624 5.075968 120.656896 3.73248 174.184448-84.975616 29.186048-64.813056 12.85632-108.123136 10.737664-115.141632 0 0-6.953984-16.876544-6.953984-33.452032 0-19.115008 15.574016-31.214592 35.078144-31.214592 16.1792 0 29.786112 2.24256 33.717248 29.273088l0.152576 0C1001.981952 568.66688 874.0608 657.52448 780.918784 678.882048L780.918784 678.882048zM780.918784 678.882048"  horiz-adv-x="1024" />

    
    <glyph glyph-name="fenxiangan" unicode="&#58891;" d="M792.010345 158.145202c-48.406476 0-91.470271-22.855544-119.005394-58.357106L374.900505 247.519742c3.696182 13.05841 5.675256 26.837228 5.675256 41.079604 0 18.178011-3.222391 35.603893-9.127891 51.736315l306.073954 151.596673c27.608801-32.31601 68.65259-52.80874 114.487497-52.80874 83.131349 0 150.524249 67.3929 150.524249 150.524249S875.141694 740.173115 792.010345 740.173115s-150.524249-67.3929-150.524249-150.524249c0-14.797008 2.14485-29.091572 6.124488-42.599214L337.860914 393.630471c-27.341718 28.060079-65.536622 45.493124-107.809401 45.493124-83.131349 0-150.524249-67.3929-150.524249-150.524249s67.3929-150.524249 150.524249-150.524249c46.675042 0 88.386026 21.245883 115.995851 54.592362l299.887045-148.616806c-2.90005-11.666714-4.449335-23.86657-4.449335-36.429701 0-83.131349 67.3929-150.524249 150.524249-150.524249s150.524249 67.3929 150.524249 150.524249S875.141694 158.145202 792.010345 158.145202zM792.010345 679.963825c49.880037 0 90.314958-40.434921 90.314958-90.314958 0-49.880037-40.434921-90.314958-90.314958-90.314958-1.254573 0-2.50096 0.032746-3.743254 0.082888-0.176009 0.007163-0.353041 0.01228-0.529049 0.020466-1.180895 0.055259-2.355651 0.135076-3.524267 0.23536-0.214894 0.01842-0.428765 0.036839-0.64366 0.057305-1.165546 0.10847-2.324952 0.236384-3.477194 0.387833-0.174985 0.023536-0.348947 0.049119-0.522909 0.073678-1.204431 0.165776-2.403746 0.349971-3.591805 0.562818-0.017396 0.00307-0.033769 0.00614-0.051165 0.00921-1.192152 0.213871-2.37407 0.457418-3.549849 0.717338-0.144286 0.031722-0.288572 0.061398-0.431835 0.094144-1.134847 0.257873-2.260483 0.539282-3.378957 0.839111-0.184195 0.049119-0.367367 0.098237-0.550539 0.149403-1.113357 0.305969-2.218528 0.63138-3.314489 0.978281-0.148379 0.047072-0.295735 0.096191-0.444115 0.144286-1.143033 0.36839-2.27788 0.754177-3.400446 1.166569-0.007163 0.00307-0.014326 0.005117-0.021489 0.008186-1.144056 0.420579-2.275833 0.867764-3.397377 1.332345-0.093121 0.038886-0.188288 0.075725-0.281409 0.11461-1.079588 0.452301-2.146896 0.927115-3.204995 1.419326-0.143263 0.066515-0.286526 0.13303-0.428765 0.200568-1.047866 0.494257-2.084475 1.006933-3.109828 1.540076-0.116657 0.060375-0.231267 0.122797-0.346901 0.183172-2.162246 1.13587-4.272303 2.354628-6.326079 3.656273-0.048095 0.030699-0.096191 0.059352-0.144286 0.090051-0.99977 0.636496-1.984191 1.294482-2.957355 1.967818-0.107447 0.073678-0.213871 0.147356-0.321318 0.222057-0.954745 0.668219-1.89721 1.353834-2.824325 2.056845-0.093121 0.070608-0.186242 0.14224-0.278339 0.213871-0.954745 0.729617-1.896186 1.474584-2.820232 2.241041 0 0-0.001023 0-0.001023 0.001023l0 0c-16.280802 13.502525-27.737738 32.613792-31.420617 54.369282l0 0 0 0.001023c-0.407276 2.408863-0.719384 4.849448-0.932232 7.317663-0.00921 0.101307-0.01842 0.202615-0.026606 0.303922-0.095167 1.153266-0.169869 2.311649-0.221034 3.477194-0.008186 0.184195-0.014326 0.36839-0.021489 0.552585-0.045025 1.170662-0.074701 2.344395-0.074701 3.526313C701.695387 639.528903 742.130308 679.963825 792.010345 679.963825zM230.051513 198.28541c-49.880037 0-90.314958 40.434921-90.314958 90.314958s40.434921 90.314958 90.314958 90.314958 90.314958-40.434921 90.314958-90.314958S279.93155 198.28541 230.051513 198.28541zM792.010345-82.694005c-49.880037 0-90.314958 40.434921-90.314958 90.314958 0 1.433652 0.036839 2.859118 0.103354 4.276397 0.001023 0.021489 0.001023 0.044002 0.002047 0.065492 0.067538 1.425466 0.170892 2.841721 0.302899 4.249791l0 0.001023c2.344395 24.836665 14.745842 46.742581 33.089629 61.60815l0.001023 0.001023c1.106194 0.896416 2.233877 1.76725 3.38305 2.611477 0.005117 0.00307 0.00921 0.007163 0.014326 0.010233 1.144056 0.840134 2.307555 1.654686 3.492544 2.441609 0.011256 0.007163 0.022513 0.014326 0.033769 0.022513 1.177825 0.781806 2.375094 1.538029 3.591805 2.2656 0.01842 0.011256 0.037862 0.022513 0.056282 0.032746 1.209548 0.722454 2.436492 1.417279 3.681856 2.084475 0.027629 0.014326 0.055259 0.028653 0.082888 0.042979 1.238201 0.661056 2.492774 1.295506 3.764744 1.899256 0.035816 0.017396 0.072655 0.033769 0.10847 0.051165 1.264806 0.598634 2.545986 1.170662 3.842515 1.711991 0.044002 0.01842 0.089028 0.035816 0.134053 0.054235 1.290389 0.536212 2.596128 1.044796 3.916193 1.52268 0.052189 0.01842 0.104377 0.036839 0.156566 0.055259 1.315972 0.472767 2.645247 0.917906 3.987824 1.330298 0.057305 0.017396 0.11461 0.033769 0.171915 0.051165 1.341554 0.409322 2.694365 0.789992 4.061502 1.137916 0.060375 0.01535 0.121773 0.029676 0.183172 0.045025 1.367137 0.344854 2.745531 0.660032 4.137227 0.942465 0.058328 0.01228 0.11768 0.022513 0.177032 0.033769 1.39579 0.279363 2.802836 0.529049 4.221138 0.743944 0.053212 0.008186 0.107447 0.014326 0.161682 0.022513 1.426489 0.212848 2.863211 0.394996 4.311189 0.540306 0.041956 0.004093 0.084934 0.007163 0.12689 0.011256 1.462305 0.145309 2.933819 0.25685 4.414543 0.331551 0.024559 0.001023 0.049119 0.002047 0.073678 0.00307 1.50119 0.074701 3.01159 0.113587 4.5312 0.113587 49.880037 0 90.314958-40.434921 90.314958-90.314958C882.325303-42.259084 841.890382-82.694005 792.010345-82.694005z"  horiz-adv-x="1024" />

    
    <glyph glyph-name="fill85" unicode="&#58892;" d="M997.89 431.304c13.608 14.304 18.624 31.008 13.872 45.816-4.776 14.856-18.648 25.536-38.112 29.28l-232.848 44.448c-21.12 3.84-48.96 23.976-59.592 43.032l-138.048 249c-3.192 5.712-9.24 9.264-15.744 9.264-6.576 0-12.576-3.528-15.744-9.24l-138.336-248.952c-10.68-19.128-38.568-39.264-59.808-43.152l-233.16-44.4c-19.176-3.744-32.952-14.4-37.752-29.184-4.824-14.784 0.096-31.488 13.512-45.888l162.048-171.72c14.76-15.6 25.464-48.36 22.92-69.984l-29.448-232.968c-2.664-20.472 3.912-32.904 9.936-39.744 12.144-13.896 33.072-16.752 53.976-6.984l214.752 99.84c18.816 8.808 54.96 8.808 73.896 0l214.632-99.84c8.4-3.936 16.656-5.928 24.48-5.928 11.76 0 22.224 4.584 29.52 12.888 6.024 6.84 12.624 19.272 9.96 39.672l-29.448 233.136c-2.808 21.408 7.92 54.096 22.968 69.96l161.568 171.648zM810.163 284.376c-22.416-23.592-36.696-67.248-32.544-99.264l29.472-233.136c0.912-6.768-0.408-10.296-1.296-11.328-1.776-1.968-6.984-0.336-11.712 1.896l-214.68 99.84c-14.256 6.624-32.784 10.296-52.2 10.296-19.392 0-37.896-3.672-52.104-10.296l-214.776-99.84c-7.56-3.576-10.512-3.288-11.664-1.896-0.912 1.008-2.208 4.536-1.272 11.4l29.424 233.208c3.816 32.328-10.44 75.84-32.472 99.072l-161.928 171.648c-5.448 5.832-5.76 9.48-5.568 10.128 0.24 0.672 2.64 3.432 10.368 4.944l232.92 44.352c31.584 5.76 68.736 32.568 84.6 61.008l122.664 220.656 122.376-220.704c15.84-28.392 52.992-55.2 84.432-60.912l232.656-44.4c7.92-1.512 10.44-4.32 10.608-4.944 0.192-0.576-0.192-4.248-5.736-10.104l-161.568-171.624z"  horiz-adv-x="1050" />

    
    <glyph glyph-name="mima" unicode="&#59026;" d="M501.773 302.182h20.454c16.937 0 30.682-13.746 30.682-30.682v-143.182c0-16.937-13.746-30.682-30.702-30.682h-20.454c-16.957 0-30.682 13.746-30.682 30.682v143.182c0.021 16.937 13.746 30.682 30.702 30.682zM839.273 404.454v-368.918c0-22.152-18.327-40.173-40.909-40.173h-572.727c-22.562 0-40.909 18.021-40.909 40.173v368.918h654.546M900.637 465.818h-777.273v-430.282c0-56.087 45.777-101.537 102.273-101.537h572.727c56.496 0 102.273 45.45 102.273 101.537v430.282zM818.818 465.818h-61.363v61.363c0 137.987-115.221 245.454-245.454 245.454-133.446 0-245.454-111.988-245.454-245.454v-61.363h-61.363v61.363c0 167.298 139.521 306.818 306.818 306.818 165.191 0 306.818-133.834 306.818-306.818v-61.363z"  horiz-adv-x="1024" />

    
    <glyph glyph-name="jifen" unicode="&#58971;" d="M500.406537 812c-7.536078 0-15.022516-0.158063-22.446251-0.428468-15.507155-0.556486-27.539537-13.164949-26.953006-28.096024 0.617883-14.966345 13.633913-26.621205 29.086203-26.059493l0 0.040495c6.765357 0.235135 13.516345 0.403648 20.307829 0.403648C784.083889 757.314123 1013.560005 535.533455 1014.07077 261.269341c0-171.436952-89.773249-322.432831-226.501657-411.695314-12.838373-8.389095-16.165533-25.243052-7.515177-37.658182 5.39243-7.741168 14.23612-11.893914 23.252242-11.893914 5.388511 0 10.822743 1.494414 15.629948 4.59689 151.485744 98.912164 251.173853 266.614387 251.198673 456.65052C1070.124349 565.429568 815.094281 812 500.406537 812zM525.909543 284.076133c0.982342 0 2.101846 0.088829 3.327161 0.26518l0.740675 0.052252 125.951386 0c4.464953 0 5.826124 1.358558 5.826124 5.816979l0 132.590032c0 1.549279 0 4.400944-6.374772 5.82743l-127.618232 0c-2.591711 0-5.816979 0-5.816979-8.036393l0-130.818681-0.073153-0.431081c-0.421937-2.498963-0.139775-3.899323 0.26518-4.378737C522.500085 284.534646 523.680986 284.076133 525.909543 284.076133zM483.2874 722.282922C216.372562 722.282922 0 513.131618 0 255.131011S216.367337-212 483.27695-212c266.914838 0 483.29785 209.140854 483.29785 467.131011C966.5748 513.126393 750.202238 722.282922 483.2874 722.282922zM393.21762 178.794423c-2.319999 3.081575-5.089367 6.626889-8.281978 10.60459l0-166.807404-0.022207-0.239054c-1.203108-13.07612-8.379951-29.109717-35.732687-31.250752l-0.393198-0.030045-0.391892 0.028739c-29.577374 2.143648-35.786246 18.437199-35.786246 31.730166L312.609412 142.048042c-6.561574-16.818686-13.729273-31.104446-21.360711-42.555522l-0.124099-0.178964c-9.11932-12.523553-20.12364-18.872199-32.708589-18.872199-5.621034 0-11.586932 1.299774-17.731794 3.864052l-0.487252 0.233829c-13.183237 7.179456-25.782556 21.520081-10.933779 49.054393l0.161982 0.278243c32.40422 52.125518 58.352677 113.346842 77.17393 182.05983l-50.641554 0c-14.477786 0-31.734085 6.27288-31.734085 36.158543l0.014369 0.393198c1.638107 21.702963 13.99576 34.068453 35.739219 35.758813l0.404955 0.015676 52.226103 0L312.608106 433.995617c-5.507385-1.06072-12.419049-2.105765-20.654-3.122071l-0.64009-0.039189-21.777423 0c-3.459098-0.424549-6.762745-0.638784-9.826032-0.638784-25.553953 0-33.364355 14.744273-35.416561 27.113682l-0.070541 0.424549 0 0.431081c0 23.039314 12.911526 37.800569 37.338137 42.684846l0.508153 0.101892 17.908145 0c52.401148 5.809142 92.264374 11.713643 118.48193 17.551524l0.39973 0.073153c2.969233 0.423243 5.850943 0.636171 8.56414 0.636171 18.391478 0 31.167148-9.87959 36.946245-28.571519l0.173739-0.563018 0.044414-0.587838c1.638107-21.736927-9.684951-35.856786-32.751697-40.839036-5.886214-1.478738-11.765896-2.952251-17.610308-4.400944l-0.619189-0.154144-8.669951 0 0-55.839345 35.029895-0.022207c9.887428-0.909189 21.461297-5.240899 27.444177-19.113865L447.411019 449.084754c-1.60545 17.96301 1.634188 31.514626 9.631392 40.276018 7.707204 8.445267 19.622018 12.348508 35.49102 11.590851l187.599872 0c20.203324 0.80991 35.194489-3.768692 44.611647-13.614318 8.377339-8.75878 12.259679-21.586702 11.542517-38.129758l0-189.806223c0.751126-16.513011-2.760224-28.964717-10.437383-37.008948-6.782339-7.106303-16.681524-10.709094-29.420618-10.709094-2.415359 0-4.974412 0.130631-7.609231 0.386666L488.141632 212.069949c-1.235765-0.070541-2.458467-0.104504-3.635449-0.104504 0 0-0.001306 0-0.002613 0-11.564725 0-20.62918 3.368962-26.945168 10.011527-7.56351 7.954096-10.976887 20.548189-10.147383 37.434803l0 74.686724c-6.054727-14.591435-17.846749-18.166794-27.922285-18.166794l-34.551787 0 0-8.514501c4.053467-5.41725 8.103014-10.822743 12.161706-16.215173 29.875212-37.365569 46.516241-58.350064 50.871464-64.144837l0.424549-0.666216c11.471977-21.33981 9.682338-39.767865-5.320583-54.777318l-0.431081-0.38536c-7.129817-5.705943-14.360219-8.599411-21.490036-8.599411-9.771167 0-19.125622 5.383286-27.806024 16.002245L393.21762 178.794423zM567.727003 146.314437c-26.578096-48.721285-61.035829-95.919417-102.433964-140.308992l-0.482027-0.454594c-10.236212-8.507969-20.757198-12.821391-31.267734-12.821391 0 0 0 0-0.001306 0-9.490311 0-18.993685 3.517881-28.243636 10.455671l-0.408874 0.306982-0.342252 0.380135c-10.590221 11.780265-18.386253 30.640707 4.617791 53.600337 30.401653 30.401653 60.591685 72.387626 89.724915 124.786161l0.116261 0.198558c9.040942 14.694633 20.421478 22.145801 33.826787 22.145801 6.048196 0 12.517022-1.568873 19.222289-4.662205l0.556486-0.299144C574.11745 186.363158 579.343979 167.92204 567.727003 146.314437zM738.121522 9.48283l-0.412793-0.241667-0.449369-0.163288c-4.871214-1.758288-9.562158-2.649188-13.939588-2.649188-0.001306 0-0.001306 0-0.002613 0-12.41513 0.001306-22.481522 6.868556-29.919626 20.411027-32.077644 52.472995-60.206325 94.667976-83.606179 125.411882-6.634727 9.095807-9.223825 17.841524-7.756843 26.080394 1.541441 8.659501 7.547835 16.535218 17.85328 23.412918l0.207703 0.131937c16.501254 9.922698 34.508679 7.55306 52.398536-7.065808l0.455901-0.372297 0.36054-0.465045c30.896743-39.705163 59.332406-85.346179 84.519287-135.658544l0.287387-0.692342C764.745339 37.648088 757.832369 21.001834 738.121522 9.48283z"  horiz-adv-x="1071" />

    
    <glyph glyph-name="dianhua" unicode="&#58882;" d="M804.257 467.727c-77.814 129.582-173.907 209.258-291.105 209.258-116.001 0-216.468-80.424-291.105-209.258-74.655-128.835-134.424-231.975-134.424-231.975-56.197-131.842 15.083-239.724 158.427-239.724h534.203c143.317 0 214.614 107.883 158.427 239.733 0-0.008-56.61 102.383-134.424 231.967v0zM513.143 232.628c-100.961 0-182.808 81.828-182.808 182.799s81.847 182.799 182.808 182.799c100.98 0 182.817-81.828 182.817-182.799 0-100.98-81.837-182.799-182.817-182.799v0zM107.801 475.683c33.578-20.835 73.494 7.47 80.505 25.839 46.017 120.402 159.21 208.251 295.902 215.856v-0.072c18.675 1.467 37.458 1.467 56.133 0.018 136.422-7.857 249.408-95.572 295.353-215.811 7.011-18.369 46.926-46.674 80.505-25.839 39.708 24.669 70.074 114.228 18.54 187.642-35.478 50.572-175.419 107.172-390.681 107.865v0.053c-21.060 0.981-42.147 0.981-63.217 0v-0.045c-215.811-0.531-356.040-57.249-391.59-107.883-51.533-73.395-21.158-162.972 18.549-187.623v0zM107.801 475.683z"  horiz-adv-x="1024" />

    
    <glyph glyph-name="cuowu" unicode="&#58903;" d="M563.591299 276.371546l289.170135 287.604938c13.665373 13.635273 13.725573 35.69853 0.1204 49.333804-13.635273 13.755673-35.63833 13.755673-49.303704 0.1806l-289.200235-287.725338L227.645855 613.340388c-13.544974 13.575073-35.66843 13.695473-49.303704 0.0602C164.706878 599.825514 164.676778 577.732158 178.281952 564.096884l286.61164-287.544738L175.904056-10.932393c-13.665373-13.575073-13.725573-35.63833-0.1505-49.333804 6.832687-6.892887 15.742269-10.29418 24.712052-10.29418 8.909583 0 17.819165 3.401293 24.621752 10.17378l289.079835 287.544738 289.290535-290.193533c6.832687-6.892887 15.742269-10.29418 24.712052-10.29418 8.909583 0 17.819165 3.401293 24.591652 10.17378 13.635273 13.635273 13.665373 35.69853 0.0602 49.333804L563.591299 276.371546 563.591299 276.371546zM563.591299 276.371546"  horiz-adv-x="1024" />

    
    <glyph glyph-name="guanbi" unicode="&#58987;" d="M512.186242 747.020056c-246.972904 0-447.184809-200.211904-447.184809-447.184809 0-246.976998 200.211904-447.184809 447.184809-447.184809s447.184809 200.207811 447.184809 447.184809C959.37105 546.808152 759.159146 747.020056 512.186242 747.020056zM683.465187 181.256572c7.277754-7.274684 7.277754-19.072381 0-26.350135l-26.350135-26.350135c-7.277754-7.274684-19.076474-7.274684-26.350135 0L512.186242 247.133955 393.607566 128.556303c-7.274684-7.274684-19.072381-7.274684-26.350135 0l-26.350135 26.350135c-7.277754 7.277754-7.277754 19.076474 0 26.350135l118.578676 118.578676L340.906274 418.413923c-7.277754 7.274684-7.277754 19.072381 0 26.350135l26.350135 26.350135c7.277754 7.274684 19.076474 7.274684 26.350135 0l118.578676-118.578676 118.578676 118.578676c7.274684 7.274684 19.072381 7.274684 26.350135 0l26.350135-26.350135c7.277754-7.277754 7.277754-19.076474 0-26.350135L564.886511 299.835248 683.465187 181.256572z"  horiz-adv-x="1024" />

    
    <glyph glyph-name="qq008" unicode="&#58945;" d="M399.675-43.5l-58.887 0.352-62.227 8.614-35.859 11.953-15.117 8.086-15.645 13.711-6.68 10.372-4.747 21.445 1.582 10.019 1.055 13.359 9.844 19.512 9.317 9.668 19.336 10.723 16.7 4.746-16.7 15.117-16.7 19.688-20.742 34.453-8.614 21.094-1.934-2.989-25.839-28.125-12.305-8.086-14.942-5.098-12.656-0.879-6.153 2.461-6.328 8.614-7.207 19.512-3.691 23.203v21.797l4.922 41.484 15.469 46.758 15.293 29.707 19.864 29.18 29.531 32.872 28.653 24.434-1.934 25.489 8.438 26.894 7.734 15.117 1.23 12.305 8.965 25.664 3.516 5.801v12.656l5.625 34.453 12.481 37.266 16.348 34.102 32.695 46.231 26.016 27.95 26.894 23.379 27.773 17.050 54.492 20.391 36.563 7.207 37.266 4.043h37.793l38.672-4.395 50.625-12.305 36.211-14.238 22.852-12.305 27.95-18.984 24.609-22.852 20.918-25.489 18.633-32.168 19.161-50.273 10.372-42.188 5.801-37.266 17.578-32.344 7.734-34.453v-5.625l-0.703-5.801 0.176-4.922-4.747-18.281-2.461-4.747 11.778-17.578 8.614-11.953 40.254-80.684 10.195-32.52 6.68-44.473v-19.863l-4.57-30.234-11.777-28.3-14.239-14.59-14.239-4.219-7.383 1.406-14.063 8.965-6.68 7.031-16.875 26.192-11.602-29.18-29.18-43.945-4.922-5.449 32.52-17.051 25.313-21.094 6.328-9.492 5.801-21.094-6.328-20.567-13.887-17.050-6.856-5.273-22.324-11.426-17.93-6.153-40.781-8.262-58.886-1.934-64.161 6.856-39.2 9.492-44.122 14.59-8.086-0.176-22.148 1.934-1.406-1.231-8.438-5.45-48.34-22.324-29.531-7.031-33.398-2.989zM222.839 28.043l7.734-16.348 9.317-7.734 11.777-6.153 15.117-5.977 55.372-10.723 20.039-1.933 57.129-0.352 30.938 2.461 25.664 6.153 24.961 10.547 25.313 13.887 7.031 6.68 30.411-2.813h9.492l23.378-7.031 37.090-11.602 62.050-10.195 23.555-1.758h34.278l66.622 11.777 26.543 12.481 10.723 10.898 5.625 14.239-3.164 11.075-5.098 7.031-18.281 14.414-16.348 9.141-27.597 14.414-7.911 7.911 5.801 10.019 16.7 17.754 23.203 35.684 19.688 48.164 7.383 5.45h6.504l6.328-2.989 2.109-3.34 23.379-40.253 10.898-9.141 5.098 2.813 8.789 12.305 5.273 15.469 3.867 26.367-1.582 28.828-8.789 43.242-11.953 30.411-22.148 44.825-33.926 53.438 0.528 7.734 7.207 22.852-0.528 18.633-5.45 21.797-18.984 36.211-7.559 48.692-18.281 58.711-15.469 30.938-8.965 15.117-31.641 35.508-24.434 18.106-20.215 12.305-33.223 14.239-34.629 10.020-24.082 5.45-36.387 4.219-47.813-0.879-56.777-9.668-31.289-10.195-35.859-18.281-21.973-17.050-27.422-27.247-20.567-26.016-25.664-41.66-14.942-37.442-5.801-24.082-2.813-18.984 0.176-20.215-9.141-13.184-4.57-22.5v-7.383l-9.668-15.645-6.503-20.742 0.528-13.183 4.922-17.93-17.050-12.48-43.77-42.539-18.106-24.609-11.075-18.105-15.469-35.332-11.075-48.516-0.703-14.063 0.703-24.961 7.559-27.598 6.68 1.406 7.734 4.219 13.184 10.898 14.942 19.512 8.614 18.106 4.043 3.164 5.625-9.668-3.516 10.723 2.461 1.231h9.844l1.758-2.989 2.637-1.406 1.934-5.449 4.747-17.403 9.141-22.148 3.692-5.625 7.383-14.238 22.324-28.125 35.684-31.289 1.231-5.273v-5.098l-7.031-6.856-40.254-8.614-13.359-7.559-8.438-13.711-1.406-5.45v-4.922l-1.758-13.008z"  horiz-adv-x="1024" />

    
    <glyph glyph-name="shouji" unicode="&#58899;" d="M743.652476-150.564789 280.406876-150.564789c-34.476209 0-62.47796 28.120454-62.47796 62.657039L217.928916 687.847375c0 34.596959 28.000728 62.717414 62.47796 62.717414l463.245599 0c34.416857 0 62.417585-28.120454 62.417585-62.717414l0-775.754103C806.07006-122.443311 778.069333-150.564789 743.652476-150.564789zM280.406876 719.865603c-17.507746 0-31.778774-14.360056-31.778774-32.018228l0-775.754103c0-17.628496 14.270005-31.957853 31.778774-31.957853l463.245599 0c17.507746 0 31.718399 14.33038 31.718399 31.957853L775.370875 687.847375c0 17.658172-14.210653 32.018228-31.718399 32.018228L280.406876 719.865603zM512.029164-83.41032c-22.544459 0-40.831964 18.377556-40.831964 40.952714s18.287505 40.952714 40.831964 40.952714 40.831964-18.377556 40.831964-40.952714S534.573623-83.41032 512.029164-83.41032zM512.029164-32.205101c-5.575995 0-10.132778-4.586458-10.132778-10.253528 0-11.332093 20.266579-11.332093 20.266579 0C522.162966-36.791559 517.60516-32.205101 512.029164-32.205101zM731.899804 28.114706 289.400714 28.114706c-8.454556 0-15.349593 6.865361-15.349593 15.349593L274.051121 664.523157c0 8.484232 6.895037 15.349593 15.349593 15.349593l442.500113 0c8.454556 0 15.349593-6.865361 15.349593-15.349593l0-621.058858C747.249397 34.980068 740.35436 28.114706 731.899804 28.114706zM304.750307 58.813892l411.800927 0L716.551234 649.173564 304.750307 649.173564 304.750307 58.813892z"  horiz-adv-x="1024" />

    
    <glyph glyph-name="15chaping" unicode="&#58904;" d="M844.216357 449.048641c0 0 95.545076 91.690282 95.545076 129.651872 0 37.962613-80.221066 179.766246-458.449363 185.178513-360.379791 5.157463-347.573113-275.614222-347.573113-275.614222 0.353041-8.302083 0.973164-16.463973 1.821485-24.505114-0.246617-0.021489-0.487094-0.040932-0.735757-0.063445 0-194.238866 129.33567-492.091578 344.628038-627.64588 25.797549 17.539468 37.817304 44.62843 32.105209 57.899688-27.070542 8.407484-187.228195 127.655402-267.840164 342.006328 117.288287-124.412544 298.261011-183.687556 390.268518-195.820897 49.77566-6.563486 84.506672 41.527812 84.506672 41.527812l0.927115 130.98524c0 0 91.483574 1.378393 168.96525 0 33.452903-0.595564 70.839395 41.063231 70.839395 52.742225C941.225785 307.968485 844.216357 449.048641 844.216357 449.048641zM650.514727 281.553882l0-172.259272c0 0-386.369721 48.724725-447.873494 378.969171 0 0-24.174586 216.938867 275.614222 206.710922 299.788807-10.228969 365.881085-92.454692 378.969171-103.354949S753.869676 453.813155 753.869676 453.813155l103.354949-172.259272L650.514727 281.553882zM64.917522 37.229295c-0.754177-18.696828 1.760087-44.125987 1.943258-61.323671 61.058634-0.093121 189.098799-8.209986 209.201649-104.020098 34.393321-6.249331 58.464553 11.655458 66.605977 25.484418C306.779012 1.792201 145.413857 40.970502 64.917522 37.229295zM879.867322 40.753561c-129.935328 0-297.701263-58.481949-297.701263-156.99973 0-28.412097 61.947887-4.485151 61.947887-4.485151s63.284325 101.615329 240.600777 97.123015C919.779334-4.261679 920.341129 23.375775 879.867322 40.753561z"  horiz-adv-x="1024" />

    
    <glyph glyph-name="zhu" unicode="&#58993;" d="M956.077983 363.338916c-6.876625 72.832868-43.199938 142.815826-103.993596 193.739686-35.51797 29.797683-76.674363 53.070759-120.844396 70.003424-5.76122-7.929608-12.307316-15.363935-19.782575-22.178137-9.870821-9.003057-20.980868-16.72698-33.081476-22.922082 12.802597-3.820006 25.110936-8.23967 36.922971-13.298901 11.976788-5.162585 16.623626-18.585306 9.974175-29.075228-5.844108-9.292653-18.66717-12.947906-29.239981-8.343024-80.494369 34.651229-170.383722 28.125599-209.80561 22.694908-11.605327-1.569753-22.693884 5.162585-25.419975 15.549153l0 0.103354c-3.118017 11.749614 5.555535 23.437829 18.647727 25.275688 7.185663 1.012051 15.838749 2.024102 25.543795 2.849911-2.953265 2.292208-5.76122 4.68777-8.48731 7.165197-13.918002 12.678776-24.924694 27.485009-32.606661 44.066679-0.784877 1.734506-1.590219 3.551899-2.292208 5.306871-12.018743-1.83786-23.892177-4.130068-35.497504-6.793737-67.587395 35.868965-148.680399 35.951853-196.898636 31.636566-20.959379-1.858326-33.371072-22.261025-24.202239-39.544684l40.846331-76.322346c-45.388792-36.055207-79.689027-80.184307-98.954832-129.372639l-49.808456 0.164752c-16.747446 0.12382-30.355385-12.307316-30.355385-27.567897l0-101.88763c0-10.30368 6.236034-19.658755 16.230676-24.450903l64.635154-30.726846c27.05215-67.957833 57.407535-121.236323 131.252454-161.420574l0-42.291241c0-40.186298 0.350994-84.563039 42.291241-84.563039l126.873722 0c14.000889 0 36.633375 30.603026 42.291241 42.271798l0 42.291241c0-2.190901 129.950807-3.078108 126.873722 0l21.228508-52.926473c0-17.740054 15.859215-32.173802 35.331728-32.173802l90.158483 0c13.009305 0 25.007582 6.52563 31.161751 17.016576 48.011528 82.185896 100.153124 164.684924 138.685758 250.754271C953.229096 271.941208 960.312428 318.197764 956.077983 363.338916zM310.205351 385.971401c-25.110936 0-45.368326 18.481952-45.368326 41.382544 0 22.880126 20.25739 41.382544 45.368326 41.382544s45.388792-18.502418 45.388792-41.382544C355.594143 404.453353 335.315264 385.971401 310.205351 385.971401zM541.631396 603.025096c16.788378-4.770658 35.166976-7.371905 54.412315-7.371905 9.437962 0 18.626238 0.598635 27.464543 1.83786 37.500116 4.996809 69.982958 20.175525 91.68628 41.321146 18.027603 17.531299 28.683301 39.19369 28.683301 62.714406 0.12382 58.501451-66.203884 105.873412-147.834124 105.873412-81.754061 0-147.937478-47.370938-147.937478-105.873412 0-15.177693 4.419664-29.550043 12.514024-42.642235C476.169409 633.442903 505.472835 613.287844 541.631396 603.025096z"  horiz-adv-x="1024" />

    
    <glyph glyph-name="xiaoxi1" unicode="&#59380;" d="M512.448 31.296c-32.768 0-64.704 2.752-95.808 7.424l-224.512-124.992 0 208.128C75.136 197.312 0 312.96 0 442.752c0 227.264 229.376 411.456 512.448 411.456s512.448-184.192 512.448-411.456C1024.896 215.488 795.52 31.296 512.448 31.296L512.448 31.296z"  horiz-adv-x="1025" />

    
    <glyph glyph-name="yonghu" unicode="&#58930;" d="M527.565 348.102c-128.932 0-233.826 104.893-233.826 233.825s104.894 233.825 233.826 233.825c128.931 0 233.824-104.893 233.824-233.825s-104.893-233.825-233.824-233.825zM527.565 761.53c-99.035 0-179.604-80.57-179.604-179.603s80.571-179.604 179.604-179.604c99.034 0 179.604 80.571 179.604 179.604s-80.571 179.603-179.604 179.603zM954.737-40.127h-54.599c0 210.737-170.937 381.045-381.046 381.045s-381.045-170.307-381.045-381.045h-54.599c0 59.379 11.522 115.958 34.243 169.684 21.942 51.881 53.349 98.522 93.348 138.521 40 40.001 86.586 71.437 138.465 93.381 53.727 22.725 110.784 34.262 169.587 34.262s115.86-11.517 169.587-34.24c51.881-21.945 98.467-53.349 138.466-93.351 39.999-40 71.406-86.694 93.349-138.575 22.723-53.725 34.246-110.303 34.246-169.682zM72.122 21.58h868.563v-54.721h-868.563v54.721z"  horiz-adv-x="1024" />

    
    <glyph glyph-name="money" unicode="&#58934;" d="M511.744173 866.779492c-266.736017 0-482.968803-216.231763-482.968803-482.96778s216.232786-482.968803 482.968803-482.968803S994.712977 117.075695 994.712977 383.811712 778.48019 866.779492 511.744173 866.779492zM545.714869 505.685433l87.321788 87.321788c7.605212 7.605212 20.049638 7.605212 27.65485 0s7.605212-20.049638 0-27.65485l-87.321788-87.321788c-7.605212-7.605212-20.050662-7.605212-27.655873 0S538.109658 498.080222 545.714869 505.685433zM362.79684 593.007221c7.605212 7.605212 20.049638 7.605212 27.65485 0l87.321788-87.321788c7.605212-7.605212 7.605212-20.049638 0-27.65485s-20.049638-7.605212-27.65485 0l-87.321788 87.321788C355.191628 572.957583 355.191628 585.402009 362.79684 593.007221zM701.667757 411.562752c0-10.754948-8.79941-19.555381-19.555381-19.555381L531.299555 392.007371l0-94.220918 150.812821 0c10.754948 0 19.555381-8.79941 19.555381-19.555381l0 0c0-10.754948-8.79941-19.555381-19.555381-19.555381L531.299555 258.67569l0-111.998817c0-10.754948-8.79941-19.555381-19.555381-19.555381-10.755971 0-19.555381 8.79941-19.555381 19.555381L492.188792 258.676713 341.375971 258.676713c-10.755971 0-19.555381 8.79941-19.555381 19.555381l0 0c0 10.754948 8.79941 19.555381 19.555381 19.555381l150.812821 0 0 94.220918L341.375971 392.008394c-10.755971 0-19.555381 8.79941-19.555381 19.555381l0 0c0 10.754948 8.79941 19.555381 19.555381 19.555381l340.735381 0C692.867324 431.118134 701.667757 422.318724 701.667757 411.562752L701.667757 411.562752z"  horiz-adv-x="1024" />

    
    <glyph glyph-name="xiaoxi" unicode="&#58900;" d="M363.611 13.211c-3.379 0-6.757 0.735-9.952 2.241-8.226 3.818-13.441 12.082-13.441 21.154v124.202h-95.814c-45.134-0.037-81.859 36.688-81.859 81.823v430.301c0 45.134 36.725 81.859 81.859 81.859h661.151c45.134 0 81.859-36.725 81.859-81.859v-430.301c0-45.134-36.725-81.859-81.859-81.859h-355.714l-171.32-142.161c-4.224-3.599-9.548-5.398-14.911-5.398zM244.403 708.002c-19.355 0-35.072-15.717-35.072-35.072v-430.301c0-19.317 15.717-35.072 35.072-35.072h119.208c12.926 0 23.393-10.467 23.393-23.393v-97.723l139.443 115.718c4.186 3.489 9.473 5.362 14.947 5.362h364.16c19.355 0 35.072 15.755 35.072 35.072v430.337c0 19.355-15.717 35.072-35.072 35.072h-661.151z"  horiz-adv-x="1140" />

    
    <glyph glyph-name="iconfontyonghu" unicode="&#58909;" d="M592.352-56.448h-179.68c-169.152 0-302.784 0-302.784 85.952v17.696c0 164.416 135.808 298.144 302.784 298.144h179.68c166.976 0 302.816-133.76 302.816-298.144v-17.696c0-85.952-140.32-85.952-302.816-85.952zM493.536 368.096c-132.224 0-239.808 106.016-239.808 236.288s107.584 236.288 239.808 236.288c132.224 0 239.808-105.984 239.808-236.288s-107.584-236.288-239.808-236.288z"  horiz-adv-x="1024" />

    
    <glyph glyph-name="icon101" unicode="&#59197;" d="M917.852 707.113c-1.614 12.122-9.846 22.335-21.349 26.485l-363.115 105.878c-15.66 5.58-30.577 4.852-42.779 0l-363.115-105.878c-11.503-4.15-19.734-14.363-21.349-26.485-0.811-6.099-19.444-151.315 18.645-317.271 22.634-98.618 60.722-184.003 113.203-253.789 64.963-86.38 151.809-148.53 258.181-184.843 8.819-3.57 18.461-5.207 31.643-0.002 106.373 36.313 193.223 98.463 258.186 184.845 52.482 69.786 90.57 155.171 113.203 253.789 38.092 165.956 19.457 311.172 18.646 317.271zM835.375 404.491c-45.657-198.926-154.433-329.889-323.377-389.461-168.41 59.386-277.045 189.745-322.963 387.673-28.033 120.833-23.34 232.563-19.862 276.307l342.827 98.558 342.848-98.567c3.493-43.446 8.192-153.97-19.473-274.509zM478.974 258.975c-8.387 0-16.767 3.201-23.156 9.591l-113.463 113.463c-12.788 12.788-12.788 33.522 0 46.31 12.787 12.788 33.522 12.788 46.309 0l90.651-90.65 186.928 181.479c12.978 12.597 33.708 12.29 46.305-0.686s12.291-33.707-0.685-46.304l-210.080-203.955c-6.357-6.172-14.586-9.251-22.809-9.251z"  horiz-adv-x="1024" />

    
    <glyph glyph-name="wendang" unicode="&#58895;" d="M727.289444 895.93604c-3.965522 0-383.76015 0-383.76015 0-67.669706 0-127.92005-62.105184-127.92005-127.92005L178.64035 767.12055c-67.669706 0-122.931168-61.209744-122.931168-127.02461l0-639.60025c0-65.814866 60.250344-127.92005 127.92005-127.92005l479.700187 0c67.669706 0 127.92005 62.105184 127.92005 127.92005l31.980012 0c67.669706 0 127.92005 62.105184 127.92005 127.92005l0 447.720175L951.149532 639.32842 727.289444 895.93604zM663.329419-63.464335l-479.700187 0c-33.579013 0-63.960025 31.404372-63.960025 63.960025l0 639.60025c0 32.555653 27.374891 62.936665 60.953904 62.936665l35.050094 1.02336 0-575.640225c0-65.814866 60.250344-127.92005 127.92005-127.92005l383.76015 0C727.289444-32.123923 696.844472-63.464335 663.329419-63.464335zM887.189507 128.41574c0-32.555653-30.381012-63.960025-63.960025-63.960025l-479.700187 0c-33.579013 0-63.960025 31.404372-63.960025 63.960025l0 639.60025c0 32.555653 30.381012 63.960025 63.960025 63.960025l319.800125 0c-0.51168-73.681949 0-128.75153 0-128.75153 0-66.454466 59.802623-127.08857 127.92005-127.08857 0 0 33.962773 0 95.940037 0L887.189507 128.41574zM791.249469 640.09594c-34.090693 0-63.960025 61.849344-63.960025 95.108557 0 0 0 33.642973 0 95.812117L727.289444 831.016615l159.900062-190.920675L791.249469 640.09594zM727.289444 447.640225l-287.820112 0c-17.652967 0-31.980012-14.327046-31.980012-31.980012 0-17.652967 14.327046-31.980012 31.980012-31.980012l287.820112 0c17.652967 0 31.980012 14.327046 31.980012 31.980012C759.269457 433.313179 744.942411 447.640225 727.289444 447.640225zM727.289444 287.932042l-287.820112 0c-17.652967 0-31.980012-14.327046-31.980012-31.980012 0-17.652967 14.327046-31.980012 31.980012-31.980012l287.820112 0c17.652967 0 31.980012 14.327046 31.980012 31.980012C759.269457 273.604997 744.942411 287.932042 727.289444 287.932042z"  horiz-adv-x="1024" />

    
    <glyph glyph-name="weixin1" unicode="&#58935;" d="M634.516 567.638c29.101 0 48.548 18.556 48.548 46.207 0 27.952-19.413 46.038-48.548 46.038-29.136 0-58.379-18.085-58.379-46.038 0.036-27.65 29.277-46.207 58.379-46.207zM362.99 659.884c-29.101 0-58.521-18.085-58.521-46.038 0-27.65 29.419-46.207 58.521-46.207 28.995 0 48.407 18.556 48.407 46.207-0.035 27.953-19.413 46.038-48.407 46.038zM1050.696 72.468c-5.905-4.243-8.416-11.552-6.293-18.288l16.725-52.976-68.632 35.767c-2.617 1.381-5.551 2.089-8.486 2.089-1.449 0-2.9-0.169-4.313-0.539-36.809-8.857-74.891-17.984-111.983-17.984-172.271 0-312.4 112.755-312.4 251.341 0 138.586 140.129 251.306 312.4 251.306 168.983 0 311.764-115.079 311.764-251.306 0-69.108-45.72-139.933-128.779-199.409M523.77 206.743c-11.492-0.943-23.16-1.414-34.723-1.414-39.037 0-72.063 6.433-110.251 13.943l-22.206 4.277c-3.818 0.774-7.85 0.27-11.35-1.448l-97.557-46.51 25.353 72.543c2.475 7.106-0.248 14.852-6.647 19.13-98.017 65.066-147.697 144.345-147.697 235.58 0 164.013 166.118 297.48 370.319 297.48 180.51 0 340.334-104.604 373.324-243.729-189.278-2.357-342.42-129.088-342.42-284.749 0-22.632 3.607-44.557 9.688-65.707-1.838 0.438-3.784 0.774-5.834 0.607M1214.835 271.844c0 146.163-142.357 270.706-317.103 283.672 0.248 1.819 0.353 3.705-0.070 5.59-35.041 155.594-210.706 272.894-408.649 272.894-223.684 0-405.679-148.554-405.679-331.158 0-97.97 52.508-186.24 152.010-255.853l-34.688-99.317c-2.228-6.466-0.212-13.572 5.197-18.052 3.288-2.693 7.426-4.109 11.598-4.109 2.688 0 5.409 0.607 7.921 1.785l130.228 62.069 16.053-3.098c40.098-7.847 74.714-14.649 117.358-14.649 12.552 0 25.282 0.539 37.764 1.55 5.056 0.404 9.335 2.829 12.234 6.332 46.958-111.913 176.373-192.706 328.666-192.706 39.002 0 78.498 8.959 113.928 17.412l100.385-52.268c2.651-1.381 5.588-2.088 8.486-2.088 3.96 0 7.921 1.28 11.103 3.738 5.588 4.311 7.885 11.417 5.799 17.917l-25.636 81.198c85.958 64.695 133.093 142.088 133.093 219.143zM721.853 354.894c0-18.591 19.413-36.945 38.825-36.945 29.172 0 48.443 18.354 48.443 36.945 0 18.489-19.271 37.079-48.443 37.079-19.413 0-38.825-18.624-38.825-37.079zM935.424 354.894c0-18.591 19.413-36.945 38.542-36.945 29.065 0 48.69 18.354 48.69 36.945 0 18.489-19.589 37.079-48.69 37.079-19.13 0-38.542-18.624-38.542-37.079z"  horiz-adv-x="1309" />

    
    <glyph glyph-name="jiantou_up" unicode="&#59168;" d="M492.286 614.851l-421.134-421.103c-12.22300001-12.256-12.223-32.062 0-44.317 12.255-12.255 32.093-12.255 44.348-1e-8l400.575 400.54400001 393.962-393.93c11.879-11.91 31.15400001-11.91 43.03200001 0 11.942 11.878 11.941 31.15400001-1e-8 43.061l-409.1 409.131c-1.598 1.598-3.542 2.382-5.391 3.543-0.72099999 0.971-1.097 2.163-2.00500001 3.072-12.223 12.223-32.063 12.223-44.28599999 0z"  horiz-adv-x="1024" />

    
    <glyph glyph-name="zhongping" unicode="&#58881;" d="M748.714 617.246c0 0 2.527 171.524-58.543 198.27-61.067 26.742-196.248-89.198-196.248-89.198s-156.835 158.157-175.206 116.205c-45.416-103.705-82.345-183.932-108.455-268.121-28.086-166.071 28.372-291.104 153.121-366.975-2.337-5.467-4.216-12.466-5.503-21.263-3.049-72.039 56.684-223.789 80.599-264.726 30.853 0 79.262-3.043 79.262-3.043s-77.265 146.821-81.932 253.616c143.701-54.015 282.578-2.936 393.715 137.5 50.488 63.795 87.082 149.607 129.466 246.391 15.264 34.852-210.275 61.345-210.275 61.345zM765.425 341.279c-80.983-90.593-204.068-149.558-326.634-92.357-127.454 55.812-184.134 170.456-165.613 301.924 7.28 51.672 44.932 116.342 78.673 193.383 27.389 18.812 140.754-116.434 140.754-116.434s113.636 116.696 158.33 97.121c44.697-19.572 31.387-178.979 31.387-178.979s180.441 5.908 185.48-33.409c-32.153-73.425-58.75-122.449-102.377-171.249zM537.39-45.871c29.964-10.708 46.861-6.306 65.574-2.712 52.354 88.518 133.030 107.301 246.993 111.534 5.582 19.344 17.53 33.273 11.136 52.527-70.971 2.161-251.655 4.078-323.703-161.35zM72.038 115.299c-15.739-17.985-3.229-49.006 0-62.595 121.055 28.058 210.329-44.24 241.733-102.17 15.744 0.179 55.497 5.122 69.709 10.157-2.161 52.089-118.956 173.941-311.441 154.607z"  horiz-adv-x="1024" />

    
    <glyph glyph-name="yunxingziyuan" unicode="&#59125;" d="M951.761 322.683v-331.194c0-13.139-4.606-24.31-13.802-33.515-9.203-9.196-20.375-13.802-33.515-13.802h-473.13c-13.146 0-24.318 4.606-33.515 13.802-9.201 9.203-13.801 20.375-13.801 33.515v78.855h-268.107c-13.146 0-24.318 4.598-33.514 13.801-9.203 9.197-13.801 20.368-13.801 33.515v662.386c0 13.138 4.597 24.31 13.801 33.514 9.196 9.196 20.368 13.801 33.514 13.801h536.214c13.139 0 24.31-4.605 33.515-13.801 9.196-9.203 13.801-20.375 13.801-33.514v-161.654c6.9-4.272 12.814-8.87 17.745-13.801l201.082-201.081c9.196-9.203 17.082-21.686 23.655-37.457 6.566-15.771 9.855-30.235 9.855-43.371zM573.255 716.959v31.541c0 4.266-1.563 7.961-4.681 11.089-3.127 3.12-6.823 4.681-11.089 4.681h-346.962c-4.274 0-7.97-1.563-11.089-4.681-3.126-3.126-4.681-6.823-4.681-11.089v-31.541c0-4.274 1.555-7.97 4.681-11.089 3.12-3.127 6.814-4.681 11.089-4.681h346.962c4.266 0 7.961 1.555 11.089 4.681 3.119 3.119 4.681 6.814 4.681 11.089zM447.088 7.261h441.587v315.422h-205.024c-13.146 0-24.318 4.597-33.515 13.801-9.201 9.196-13.801 20.368-13.801 33.514v205.024h-189.25v-567.757zM699.423 385.765h147.363l-147.363 147.361v-147.361z"  horiz-adv-x="1024" />

    
    <glyph glyph-name="haoping" unicode="&#58924;" d="M150.359496 110.562351c-11.038404-0.107447-19.887956-9.134031-19.796882-20.173458 0.093121-10.990309 9.045003-19.839861 20.017916-19.839861 0.047072 0 0.096191 0 0.14224 0 1.458211-0.034792 146.865929-0.144286 237.258659-101.372805 3.953032-4.425799 9.429767-6.680143 14.930037-6.680143 4.742001 0 9.503445 1.676176 13.319353 5.083785 8.242731 7.360641 8.958022 20.007683 1.597381 28.251438C315.118957 110.84683 157.004847 110.646262 150.359496 110.562351zM877.03788 110.691287c-6.541997 0.083911-161.247474 0.318248-267.590478-114.532523-7.506974-8.106632-7.019881-20.765953 1.088798-28.27395 3.848655-3.564175 8.723685-5.326309 13.589506-5.326309 5.377474 0 10.742668 2.157129 14.685467 6.414083 93.234451 100.692307 233.990219 101.704356 237.780545 101.704356 0.163729-0.002047 0.171915 0 0.246617 0 10.95347 0 19.890003 8.823969 20.001543 19.801998C896.951419 101.529627 888.087541 110.579747 877.03788 110.691287zM832.011384 308.31525c33.930787 57.638745 55.54506 124.547621 62.506613 193.495946 6.768147 67.041906-1.353834 132.322701-22.871917 183.818539-3.055592 7.313569-10.140964 12.133342-18.065448 12.289907-71.066569 1.400906-136.524396-12.479219-195.010439-41.286312-17.704221 30.626531-45.025473 69.12331-65.693188 96.125291-59.397808 77.602426-72.582085 77.602426-81.308841 77.602426-8.700149 0-21.850657 0-81.133855-76.57298-20.679995-26.711362-48.059576-64.869427-65.807798-95.269807-57.462736 27.503401-121.541147 40.742936-190.748369 39.400359-7.92653-0.154519-15.013949-4.974291-18.071587-12.289907-21.519106-51.494815-29.640064-116.780727-22.8668-183.830819 6.963599-68.949348 28.578896-135.861294 62.509682-193.503109 59.255569-100.667747 151.187351-163.30125 259.230066-176.777169 1.62808-0.584308 3.341095-0.960885 5.105275-1.108241 0.769526-0.063445 14.83487-1.216711 33.642215-1.77339L493.426992-46.232718c0-11.048637 8.958022-20.007683 20.007683-20.007683s20.007683 8.958022 20.007683 20.007683L533.442358 128.670777c18.71627 0.565888 33.254382 1.665942 34.06791 1.728364 1.830695 0.140193 3.601015 0.528026 5.27105 1.131777C680.836313 145.03242 772.761955 207.666946 832.011384 308.31525zM702.586686 223.154685c-40.972157-29.073152-87.709621-46.706765-138.915863-52.407604-1.260713-0.141216-2.483564-0.394996-3.65525-0.754177-8.44023-0.547469-27.712155-1.63729-47.320749-1.63729-19.374256 0-37.316907 1.065262-45.277206 1.613754-1.196245 0.37146-2.444679 0.635473-3.729951 0.777713-51.175543 5.701862-97.888448 23.330358-138.841162 52.399417-37.432541 26.570145-69.365834 62.047148-94.912673 105.447611-59.377342 100.875478-75.902714 234.082316-41.929971 329.379753 64.23293-0.666172 123.156948-15.346523 175.318958-43.705408 4.779863-2.598174 10.412141-3.14155 15.597233-1.496074 5.186116 1.642406 9.479909 5.326309 11.892865 10.202363 23.422456 47.345308 95.158267 140.218532 120.697943 163.795507 25.570375-23.852244 97.455589-117.946272 120.866788-165.839049 2.415003-4.940522 6.756891-8.66945 12.006452-10.30981 5.240351-1.641383 10.940167-1.048889 15.738449 1.636267 53.090149 29.706579 113.357767 45.063335 179.328271 45.719274 33.979906-95.30153 17.455557-228.496088-41.921785-329.36338C771.97401 285.208996 740.03253 249.7279 702.586686 223.154685z"  horiz-adv-x="1024" />

    
    <glyph glyph-name="wancheng" unicode="&#58995;" d="M512 896C230.4 896 0 665.6 0 384s230.4-512 512-512 512 230.4 512 512S793.6 896 512 896zM785.92 550.4 419.84 189.44c-5.12-5.12-10.24-5.12-15.36 0l-166.4 171.52c-2.56 2.56-2.56 5.12 0 7.68l23.04 33.28c2.56 2.56 5.12 2.56 7.68 0l135.68-104.96c5.12-2.56 12.8-2.56 15.36 0l335.36 279.04c2.56 2.56 5.12 2.56 7.68 0l23.04-23.04C788.48 555.52 788.48 552.96 785.92 550.4z"  horiz-adv-x="1024" />

    
    <glyph glyph-name="shanchu" unicode="&#59427;" d="M496 864C239.739512 864 32 656.259559 32 400 32 143.740442 239.740441-64 496-64 752.259558-64 960 143.740442 960 400 960 656.259559 752.260486 864 496 864L496 864ZM757.154477 360.118042 234.844596 360.118042 234.844596 439.88103 757.154474 439.88103 757.154477 360.118042 757.154477 360.118042Z"  horiz-adv-x="1024" />

    
    <glyph glyph-name="youxiang" unicode="&#59133;" d="M910.415 659.873h-796.833c-44.135 0-80.055-35.92-80.055-80.144v-488.612c0-44.251 35.92-80.080 80.055-80.080h796.833c44.32 0 80.057 35.829 80.057 80.080v488.612c-0.001 44.224-35.738 80.144-80.057 80.144v0zM891.258 602.489l-317.762-281.754c-27.733-24.737-48.272-37.029-61.497-37.029-13.221 0-33.763 12.29-61.497 37.029l-317.763 281.754h758.518zM93.075 108.963v441.469l248.169-217.673-248.169-223.796zM134.809 68.422l249.101 221.216 40.807-35.829c23.715-20.717 52.924-31.361 87.282-31.361 34.539 0 63.564 10.643 87.372 31.361l40.804 35.829 249.109-221.216h-754.476zM930.956 108.963l-248.171 223.796 248.171 217.673v-441.469zM930.956 108.963z"  horiz-adv-x="1024" />

    
    <glyph glyph-name="sucai" unicode="&#58937;" d="M950.960643 500.640301l-124.39183-532.977735c-4.42579-18.592413-23.019227-30.068769-41.167526-25.676748L254.636959 67.262805c-18.149322 3.984746-29.659448 22.576136-25.674701 41.167526l9.738786 41.203342 472.297845-81.9288c3.983723-0.443091 7.559148-0.851389 11.509102-0.851389 18.150346 0 34.901835 7.525379 47.398425 19.443802l13.246672-3.064796 93.87997 399.699532-24.822289 5.755063 11.509102 67.728409 61.974369-14.607667C943.878355 537.382036 955.354711 518.789623 950.960643 500.640301M283.853316 531.626974c34.528329 0 62.859528 27.889131 62.859528 62.859528 0 34.528329-28.331199 62.859528-62.859528 62.859528-34.528329 0-62.416437-28.331199-62.416437-62.859528C221.436879 559.516105 249.324987 531.626974 283.853316 531.626974M645.925954 826.413271 100.586705 826.413271C82.029084 826.413271 66.535236 810.919423 66.535236 792.361802l0-547.586425c0-19.036527 15.493848-34.529352 34.051469-34.529352l545.373018 0c18.593436 0 34.051469 15.493848 34.0177 34.49456L679.977423 792.32701C679.977423 810.885654 664.518368 826.413271 645.925954 826.413271zM611.805924 400.187648 501.171395 548.891138c0 0-6.67399 11.952193-29.216357 11.952193-25.674701 0-33.643171-11.475333-33.643171-11.475333l-96.944766-150.950666c0 0-5.755063-10.216669-18.592413-10.216669-13.246672 0-19.920662 10.216669-19.920662 10.216669l-51.315633 58.397921c0 0-12.837351 17.707255-30.101515 17.707255-16.787305 0-30.987696-19.477571-30.987696-19.477571l-55.776216-69.398441L134.672966 757.833473l477.132958 0L611.805924 400.187648zM285.181565 176.193532l431.537594-74.403422c18.592413-3.540632 36.299668 9.263972 39.398233 27.856386l92.518975 539.617956c3.132334 18.592413-9.261926 36.298645-27.854339 39.398233l-106.684574 18.59139 0-69.498725 61.49751-10.624967-61.49751-359.858208 0-42.531591c0-38.035192-30.545629-68.579798-68.171499-68.579798L285.181565 176.160787 285.181565 176.193532z"  horiz-adv-x="1024" />

    
    <glyph glyph-name="fabu" unicode="&#59235;" d="M946.672164 785.515181c0 0.042571-0.003649 0.085142-0.003649 0.128929 0.002433 0.828308-0.038922 1.652967-0.104603 2.47276-0.018245 0.235964-0.043787 0.470712-0.066897 0.70546-0.071762 0.689648-0.166635 1.375648-0.285833 2.056782-0.03284 0.190961-0.058383 0.381922-0.094872 0.571666-0.159337 0.82101-0.353946 1.634722-0.578964 2.437487-0.070546 0.248127-0.153255 0.49139-0.229883 0.737084-0.177581 0.574099-0.370975 1.143332-0.582613 1.705268-0.111901 0.295564-0.221369 0.591127-0.341783 0.884258-0.290698 0.704244-0.602074 1.398758-0.945074 2.078675-0.135011 0.268805-0.287049 0.527879-0.429358 0.793035-0.282184 0.519365-0.576531 1.032648-0.889123 1.536201-0.180014 0.290698-0.363677 0.575315-0.553421 0.859932-0.37584 0.561936-0.771141 1.110492-1.184687 1.645669-0.128929 0.166635-0.248127 0.335702-0.380705 0.498687-0.523014 0.64951-1.082517 1.272261-1.661481 1.877984-0.175149 0.183663-0.355163 0.363677-0.536393 0.543691-0.563152 0.563152-1.148198 1.106843-1.761218 1.627424-0.070546 0.060816-0.131362 0.127713-0.203124 0.187312-0.020677 0.018245-0.043787 0.03284-0.064464 0.049869-0.574099 0.475578-1.162793 0.934127-1.77703 1.369566-0.122847 0.087574-0.251776 0.162986-0.37584 0.248127-0.221369 0.152039-0.44517 0.294347-0.667755 0.441521-0.554638 0.360028-1.11779 0.699379-1.689456 1.020485-0.235964 0.132578-0.46828 0.272454-0.70546 0.397734-0.723705 0.380705-1.459573 0.72857-2.206388 1.047244-0.290698 0.12528-0.587478 0.233532-0.883042 0.347865-0.523014 0.20434-1.050893 0.394085-1.583637 0.568017-0.316241 0.103386-0.630049 0.207989-0.948723 0.300429-0.768709 0.222585-1.542282 0.423276-2.323154 0.583829-0.218936 0.045004-0.439088 0.072979-0.659241 0.113117-0.63978 0.117982-1.281992 0.215287-1.926636 0.290698-0.282184 0.03284-0.563152 0.062032-0.845336 0.086358-0.723705 0.064464-1.44741 0.103386-2.173548 0.11555-0.12528 0.002433-0.251776 0.013379-0.378273 0.013379-0.856283 0.002433-1.711349-0.038922-2.5652-0.108252-0.218936-0.018245-0.436656-0.045004-0.654375-0.066897-0.684783-0.070546-1.36835-0.166635-2.049484-0.284617-0.205557-0.035273-0.411113-0.065681-0.615453-0.104603-0.831957-0.162986-1.659048-0.356379-2.480058-0.589911-0.193393-0.054734-0.381922-0.124064-0.574099-0.182447-0.621535-0.189745-1.238205-0.400166-1.850009-0.632482-0.29678-0.111901-0.592343-0.228666-0.886691-0.350298-0.554638-0.231099-1.101978-0.12528-1.645669-0.391652-0.245695-0.119198-0.496255 0.004865-0.739517 0.004865l-0.001216 0L93.520061 390.090069c-10.017537-5.233786-16.265726-15.810826-16.186666-27.112787 0.080277-11.300745 6.473207-21.698987 16.562506-26.791681l217.270836-109.70638c14.862103-7.507071 32.997299-1.559311 40.499505 13.307658 7.502206 14.863319 1.534984 32.986352-13.330768 40.487342L173.473043 363.479618l623.152573 325.577242L412.496383 228.582223c-4.522244-5.419881-6.998653-12.255549-6.998653-19.313801l0-230.244008c0-16.65008 13.497402-30.149915 30.148699-30.149915 16.651296 0 30.149915 13.497402 30.149915 30.149915L465.796344 198.343518l405.21155 485.741064-92.304619-623.73397-217.410712 107.905023c-14.913188 7.400036-33.007029 1.311183-40.408281-13.603221-7.403685-14.915621-1.313616-33.007029 13.602005-40.410714l254.566578-126.345513c4.224248-2.095704 8.814605-3.142947 13.40253-3.142947 4.798347 0 9.594261 1.144549 13.965682 3.42878 8.551882 4.469943 14.447341 12.76275 15.859478 22.30471l114.068071 770.80907c0.040138 0.27367 0.059599 0.54734 0.09244 0.819794 0.035273 0.288266 0.070546 0.574099 0.096089 0.862364C946.613781 783.826942 946.667298 784.673494 946.672164 785.515181L946.672164 785.515181z"  horiz-adv-x="1024" />

    
    <glyph glyph-name="dianpu" unicode="&#58896;" d="M256.32 436.16c-15.232-22.016-27.136-47.296-46.144-65.344C144.32 308.352 32 336.192 4.16 421.568a97.92 97.92 0 0 0 0.64 58.304c21.76 62.912 47.616 124.48 70.912 186.88 5.568 14.848 13.312 20.672 29.824 20.608 269.056-0.448 538.048-0.512 807.104 0.064 18.176 0.064 25.856-7.168 31.808-22.592 21.952-56.768 40.128-115.648 68.8-169.024 37.888-70.592-30.912-153.344-102.848-158.08-68.032-4.544-110.72 25.344-143.36 102.528-25.984-69.12-64.256-101.184-122.624-102.784-61.44-1.664-101.44 27.456-133.248 99.776-27.456-71.296-76.544-109.888-153.216-97.472-55.232 8.96-89.344 45.248-101.632 96.384zM85.44 295.36h70.144v-286.144h708.928V294.4h71.04v-136.064c0-51.136 0.192-102.336-0.064-153.472-0.256-45.056-23.04-68.608-67.968-68.672-238.528-0.256-477.056-0.256-715.584 0-38.528 0.064-65.472 20.928-65.984 55.424-1.472 100.224-0.512 200.512-0.512 303.744zM511.04 747.392H166.784c-8.832 0-17.664-0.192-26.432 0.512-25.536 2.048-39.168 16.768-40.896 41.088-1.6 23.168 16.128 40.192 42.304 42.56 6.848 0.64 13.696 0.384 20.608 0.384h697.28c5.888 0 11.776 0.192 17.664-0.192 28.288-1.856 45.952-18.56 45.504-42.752-0.448-24.192-18.048-39.872-46.976-41.408-7.808-0.448-15.68-0.192-23.552-0.192H511.04z"  horiz-adv-x="1024" />

    
    <glyph glyph-name="zhangben" unicode="&#58908;" d="M828.098-66h-632.196c-44.221 2.515-79.129 38.989-79.129 83.617 0 1.473 0.038 2.937 0.113 4.392l-0.008 702.235c-0.067 1.251-0.105 2.715-0.105 4.188 0 44.627 34.908 81.101 78.908 83.607l99.002 0.009v-43.902h-98.781c-22.117-1.3-39.562-19.553-39.562-41.881 0-0.711 0.018-1.418 0.053-2.121l-0.004-702.34c-0.031-0.604-0.049-1.311-0.049-2.021 0-22.327 17.444-40.581 39.447-41.875l632.309-0.006c22.117 1.3 39.562 19.553 39.562 41.881 0 0.711-0.018 1.418-0.053 2.121l0.004 702.34c0.031 0.604 0.049 1.311 0.049 2.021 0 22.327-17.444 40.581-39.447 41.875l-98.894 0.006v43.902h98.781c44.221-2.515 79.129-38.989 79.129-83.617 0-1.473-0.038-2.937-0.113-4.392l0.008-702.235c0.067-1.251 0.105-2.715 0.105-4.188 0-44.628-34.908-81.101-78.908-83.607zM731.512 329.122h-439.025c-12.121 0.003-21.947 9.83-21.947 21.952s9.825 21.949 21.946 21.952h439.025c12.121-0.003 21.947-9.83 21.947-21.952s-9.825-21.949-21.946-21.952zM731.512 504.732h-439.025c-12.121 0.003-21.947 9.83-21.947 21.952s9.825 21.949 21.946 21.952h439.025c12.121-0.003 21.947-9.83 21.947-21.952s-9.825-21.949-21.946-21.952zM292.488 197.414h439.025c12.121-0.003 21.947-9.83 21.947-21.952s-9.825-21.949-21.946-21.952h-439.025c-12.121 0.003-21.947 9.83-21.947 21.952s9.825 21.949 21.946 21.952zM402.244 834h219.512c24.247 0 43.902-19.656 43.902-43.902v-21.952c0-24.247-19.656-43.902-43.902-43.902h-219.512c-24.247 0-43.902 19.656-43.902 43.902 0 0 0 0 0 0v21.952c0 24.247 19.656 43.902 43.902 43.902z"  horiz-adv-x="1024" />

    
    <glyph glyph-name="sousuo" unicode="&#58898;" d="M919.744 39.616l-173.376 174.4a367.36 367.36 0 0 1 75.136 223.296c0 202.944-163.392 367.424-365.12 367.424-201.664 0-365.12-164.48-365.12-367.424 0-202.88 163.456-367.424 365.12-367.424a361.792 361.792 0 0 1 227.712 80.256l172.736-173.76a44.288 44.288 0 0 1 62.848 0 44.992 44.992 0 0 1 0.064 63.232zM261.12 240.768a276.928 276.928 0 0 0-80.896 196.544c0 74.24 28.736 144.064 80.896 196.544s121.536 81.408 195.328 81.408c73.856 0 143.104-28.928 195.328-81.408a277.312 277.312 0 0 0 80.896-196.544c0-74.304-28.736-144-80.896-196.544a273.664 273.664 0 0 0-195.328-81.472 273.152 273.152 0 0 0-195.328 81.472z"  horiz-adv-x="1024" />

    
    <glyph glyph-name="jiaocheng" unicode="&#58911;" d="M793.682427 613.964532V102.27971H298.512744c-56.539714 0-102.337783 12.241812-102.337783 68.756967 0 56.565297 45.797046 86.346577 102.337783 86.346577h442.303638V768.018164H264.382413c-75.02881 0-136.440485-61.411675-136.440486-136.465045v-494.596631c0-75.054393 61.411675-136.465045 136.440486-136.465045h631.087259V613.964532h-101.787245zM332.61647 205.164962H740.816382v-49.02046H332.61647v49.02046z"  horiz-adv-x="1024" />

    
    <glyph glyph-name="yanjing" unicode="&#58917;" d="M512 650.338c-170.336 0-303.155-101.595-466.034-266.338 140.276-140.743 257.95-266.338 466.034-266.338 207.852 0 360.709 158.917 466.034 263.309-107.654 122.334-260.512 269.366-466.034 269.366zM512 194.092c-102.761 0-186.414 85.284-186.414 189.908 0 104.858 83.653 189.908 186.414 189.908 102.761 0 186.414-85.284 186.414-189.908 0-104.858-83.653-189.908-186.414-189.908zM512 194.092zM512 450.643c0 16.543 6.059 31.457 15.844 43.108-5.125 0.932-10.485 1.165-15.844 1.165-59.886 0-108.819-49.633-108.819-110.916s48.933-110.916 108.819-110.916c59.886 0 108.819 49.633 108.819 110.916 0 4.893-0.466 9.554-0.933 14.448-11.418-8.855-25.632-14.448-41.245-14.448-36.815 0-66.642 29.826-66.642 66.643zM512 450.643z"  horiz-adv-x="1024" />

    
    <glyph glyph-name="qian" unicode="&#58894;" d="M376.317505 639.018941h246.966143c76.422291 0 134.719469 165.728253 134.719469 165.728254 0 49.63369-4.969871 87.183121-89.829979 89.828704-84.834608 2.672358-105.159061-59.319712-166.126047-59.319712-62.490586 0-93.747992 48.734829-170.644575 59.319712C254.528882 905.213055 241.598037 854.380884 241.598037 804.747195c0-0.001275 58.270403-165.728253 134.719468-165.728254z m260.446505-51.229964H376.317505C87.903043 587.788977 17.074088 21.17774 17.074088 21.17774c0-74.425673 60.320571-149.176465 134.719469-149.176465H861.263734c74.400173 0 134.716919 74.750792 134.716919 149.176465 0-0.001275-70.853179 566.611237-359.216643 566.611237z m29.562958-435.462987c17.3767 0 31.458852-14.105102 31.458852-31.481802 0-17.375425-14.082152-31.481802-31.458852-31.481802H538.621163v-82.589368c0-17.375425-14.080877-31.483077-31.432078-31.483077-17.3767 0-31.456302 14.107652-31.456302 31.483077v82.589368H347.205891c-17.375425 0-31.457577 14.106377-31.457578 31.481802 0 17.3767 14.082152 31.481802 31.457578 31.481802h128.528167v39.945119H347.205891c-17.375425 0-31.457577 14.082152-31.457578 31.458852 0 17.375425 14.082152 31.507302 31.457578 31.507301h86.8835l-88.955342 158.088575c-8.688988 15.080461-3.521494 34.304607 11.509243 42.991044 15.053687 8.688988 34.279108 3.545719 42.96682-11.483743l107.105956-189.595876h5.417389l107.105955 189.595876c8.687713 15.029462 27.913133 20.174006 42.943871 11.483743 15.054962-8.686438 20.22373-27.910583 11.534743-42.991044l-88.956618-158.088575h81.566835c17.3767 0 31.458852-14.130601 31.458852-31.507301 0-17.375425-14.082152-31.458852-31.458852-31.458852H538.621163v-39.945119h127.705805z"  horiz-adv-x="1024" />

    
    <glyph glyph-name="wodeshouru" unicode="&#58910;" d="M296.176 655.482c2.168-3.629 4.782-6.78 7.92-9.45 3.139-2.659 7.92-7.246 14.391-13.74a2098.635 2098.635 0 0 0 19.664-20.018 1238.977 1238.977 0 0 1 24.651-25.759H538.89c8.616 9.153 16.822 17.747 24.64 25.759a2098.558 2098.558 0 0 0 19.664 20.018c6.448 6.494 11.252 11.07 14.38 13.74 2.739 2.672 5.273 5.821 7.623 9.45 2.353 3.63 3.915 7.442 4.703 11.448 0.788 3.994 0.788 8 0 12.018-0.788 3.994-2.75 7.715-5.878 11.162-3.537 3.424-6.64 4.941-9.403 4.576-2.738-0.388-5.764-1.335-9.084-2.864a421.6 421.6 0 0 0-11.744-5.136c-4.498-1.918-10.271-2.864-17.313-2.864-6.655 0-11.835 1.712-15.545 5.136-3.73 3.446-7.142 7.167-10.27 11.172s-6.666 7.715-10.58 11.15c-3.893 3.424-9.188 5.16-15.84 5.16-6.666 0-12.03-1.713-16.15-5.16a105.58 105.58 0 0 1-11.435-11.15c-3.527-4.006-7.134-7.646-10.854-10.865-3.71-3.253-8.502-4.873-14.38-4.873-7.04 0-12.6 1.62-16.719 4.873-4.132 3.23-7.75 6.859-10.853 10.865a96.085 96.085 0 0 1-10.272 11.15c-3.732 3.424-8.913 5.16-15.555 5.16-6.654 0-11.95-1.713-15.841-5.16a99.086 99.086 0 0 1-10.853-11.15 119.884 119.884 0 0 0-10.568-11.172c-3.71-3.424-8.708-5.136-14.974-5.136-7.03 0-12.897 0.947-17.598 2.864-4.69 1.906-8.708 3.618-12.029 5.136-3.332 1.529-6.368 2.487-9.096 2.864-2.728 0.365-5.866-1.141-9.393-4.576-3.127-3.447-5.18-7.167-6.151-11.162-0.993-4.018-0.993-8.023 0-12.018 0.934-4.006 2.487-7.818 4.655-11.448z m263.256-342.701h-0.182c0.548-3.697 0.182 0 0.182 0z m151.14-15.042c-70.497 0-127.664 30.244-127.98 67.575 0-14.277-0.037-26.752-0.037-26.752 0-16.012 10.535-30.711 28.041-42.329 17.702-4.645 33.45-11.207 46.565-19.31 16.297-3.972 34.34-6.244 53.411-6.244 70.736 0 128.018 30.37 128.018 67.883v27.06c-0.001-37.503-57.304-67.883-128.018-67.883zM546.72 77.366c-70.507 0-127.661 30.22-127.982 67.563 0-14.265-0.033-26.751-0.033-26.751 0-37.502 57.326-67.883 128.015-67.883 70.726 0 128.006 30.38 128.006 67.883v27.07c-0.001-37.524-57.28-67.882-128.006-67.882z m35.835 308.423c0-37.502 57.327-67.883 128.018-67.883 70.736 0 128.018 30.38 128.018 67.883 0 37.502-57.282 67.894-128.018 67.894-70.69 0-128.018-30.37-128.018-67.894z m-23.303-73.008c-0.32 2.248-0.994 7.19-2.282 17.326-4.92 38.585 3.288 70.872 3.288 70.872 8.855 50.399 77.171 69.777 99.986 74.902-7.84 9.324-15.715 17.964-23.568 25.93-23.486 22.894-50.079 42.534-79.82 58.946H344.384c-30.13-16.4-56.938-36.052-80.402-58.947-10.191-9.929-19.96-20.897-29.354-32.914-9.393-12.018-17.895-25.371-25.541-40.036-7.624-14.7-13.695-30.54-18.182-47.523-4.52-16.97-6.755-35.197-6.755-54.643 0-32.446 5.078-61.434 15.258-87 10.157-25.564 26.113-47.311 47.842-65.23 21.706-17.94 49.394-31.658 83.05-41.2 18.603-5.272 39.237-9.083 61.926-11.458v72.06c-1.666 29.143 5.73 40.167 5.73 40.167 28.895 79.456 156.068 78.818 161.295 78.748z m-172.002 65.818c0 6.346 5.147 11.493 11.482 11.493h43.517v21.193H398.73c-6.333 0-11.482 5.136-11.482 11.492 0 6.357 5.147 11.504 11.482 11.504h37.799l-44.362 44.441c-4.29 4.291-4.29 11.276 0 15.567a10.986 10.986 0 0 0 15.556 0l43.801-43.882a11.487 11.487 0 0 0 2.192 0.217c0.924 0 1.814-0.125 2.67-0.33l45.331 45.411c4.291 4.303 11.253 4.303 15.543 0 4.291-4.29 4.291-11.276 0.013-15.566l-45.766-45.857h37.195c6.344 0 11.48-5.147 11.48-11.504 0-6.357-5.136-11.492-11.48-11.492H465.2v-21.193h43.505c6.344 0 11.48-5.147 11.48-11.493s-5.136-11.504-11.48-11.504H465.2v-26.626c0-6.357-5.136-11.503-11.482-11.503-6.334 0-11.47 5.146-11.47 11.503v26.626h-43.516c-6.335-0.001-11.482 5.157-11.482 11.503z m323.323-222.53c-4.085 0-8.16 0.113-12.19 0.319-0.157-1.186-0.123-2.397-0.354-3.56a23.11 23.11 0 0 0 1.292-7.601v-15.932c3.71-0.205 7.463-0.32 11.275-0.32 70.725 0 128.005 30.38 128.005 67.9v27.06c-0.011-37.509-57.314-67.866-128.028-67.866z m0 47.207c-4.085 0-8.16 0.126-12.19 0.32-0.157-1.164-0.123-2.385-0.354-3.537a23.073 23.073 0 0 0 1.292-7.608v-15.909c3.71-0.206 7.463-0.32 11.275-0.32 70.725 0 128.005 30.386 128.005 67.889v27.048c-0.011-37.49-57.314-67.883-128.028-67.883z m0 20.19c70.736 0 128.018 30.357 128.018 67.883v27.037c0-37.503-57.303-67.872-128.018-67.872-8.606 0-16.994 0.456-25.119 1.324 6.494-8.629 10.864-18.02 12.726-28.04 4.119-0.229 8.237-0.332 12.393-0.332zM546.72 124.568c-70.507 0-127.661 30.22-127.982 67.587 0-14.266-0.033-26.753-0.033-26.753 0-37.5 57.326-67.882 128.015-67.882 70.726 0 128.006 30.38 128.006 67.882v27.05c-0.001-37.503-57.28-67.884-128.006-67.884z m0 155.95c-70.69 0-128.015-30.37-128.015-67.894 0-37.497 57.326-67.878 128.015-67.878 70.726 0 128.006 30.38 128.006 67.878-0.001 37.524-57.28 67.894-128.006 67.894z"  horiz-adv-x="1024" />

    
    <glyph glyph-name="jubao" unicode="&#58906;" d="M522.998 559.313c-11.52 0-20.869-9.35-20.869-20.869v-251.458c0-11.52 9.349-20.869 20.869-20.869s20.87 9.349 20.87 20.869v251.457c0 11.52-9.328 20.87-20.869 20.87zM522.998 224.044c-11.52 0-20.869-9.351-20.869-20.871v-41.906c0-11.519 9.349-20.869 20.869-20.869s20.87 9.35 20.87 20.869v41.906c0 11.52-9.328 20.87-20.869 20.87zM979.478 82.297l-396.772 690.032c-14.734 25.628-36.501 40.32-59.708 40.32s-44.974-14.713-59.708-40.32l-396.751-690.032c-8.306-14.462-12.522-28.758-12.522-42.511 0-30.428 22.414-61.148 72.48-61.148h793.043c50.046 0 72.459 30.72 72.48 61.148-0.021 13.753-4.237 28.049-12.543 42.511zM919.52 20.377h-793.043c-9.246 0-30.741 1.899-30.741 19.409 0 6.261 2.4 13.753 6.95 21.683l396.792 690.053c14.192 24.647 32.87 24.647 47.062 0l396.772-690.032c4.55-7.93 6.95-15.443 6.95-21.704 0-17.51-21.495-19.409-30.741-19.409z"  horiz-adv-x="1024" />

    
    <glyph glyph-name="shenfenzheng" unicode="&#58884;" d="M1236.156-37.875h-1006.010c-53.676 0-97.356 43.681-97.356 97.356v649.038c0 53.676 43.681 97.356 97.356 97.356h1006.010c53.676 0 97.356-43.681 97.356-97.356v-649.038c0-53.676-43.681-97.356-97.356-97.356zM1268.609 708.519c0 17.881-14.572 32.452-32.452 32.452h-1006.010c-17.881 0-32.452-14.572-32.452-32.452v-649.038c0-17.881 14.572-32.452 32.452-32.452h1006.010c17.881 0 32.452 14.572 32.452 32.452v649.038zM1145.679 258.346h-285.544c-10.774 0-19.504 8.729-19.504 19.47 0 10.742 8.73 19.471 19.504 19.471h285.546c10.774 0 19.504-8.729 19.504-19.47 0-10.742-8.73-19.471-19.504-19.471zM1145.679 359.759h-285.544c-10.774 0-19.504 8.729-19.504 19.47 0 10.742 8.73 19.471 19.504 19.471h285.546c10.774 0 19.504-8.729 19.504-19.47 0-10.742-8.73-19.471-19.504-19.471zM1015.873 459.71h-155.737c-10.774 0-19.504 8.73-19.504 19.471 0 10.775 8.73 19.47 19.504 19.47h155.737c10.775 0 19.47-8.696 19.47-19.47 0-10.741-8.696-19.47-19.47-19.47zM616.454 361.349c-23.365-16.909-50.917-26.578-79.376-26.578-28.428 0-55.98 9.67-79.346 26.578-77.787-32.095-129.677-108-129.677-192.57h-38.943c0 94.662 54.778 180.141 138.375 221.549-17.621 23.495-27.422 52.021-27.422 81.487 0 75.548 61.463 137.012 137.012 137.012 75.579 0 137.044-61.464 137.044-137.012 0-29.467-9.8-57.991-27.455-81.487 83.63-41.408 138.408-126.92 138.408-221.549h-38.943c0 84.57-51.891 160.475-129.677 192.57zM537.078 569.885c-54.065 0-98.069-44.004-98.069-98.069 0-27.877 12.331-54.65 33.847-73.471 36.802-32.193 91.709-32.193 128.445 0v0c21.548 18.822 33.848 45.595 33.848 73.471 0 54.065-43.973 98.069-98.069 98.069z"  horiz-adv-x="1458" />

    
    <glyph glyph-name="tuikuan" unicode="&#58889;" d="M492.8 725.344C297.184 725.344 138.688 572.48 138.688 384S297.184 42.656 492.8 42.656c195.584 0 354.144 152.832 354.144 341.344 0 188.48-158.56 341.344-354.144 341.344z m138.56-361.216c13.92 0 25.216-10.88 25.216-24.32s-11.296-24.288-25.216-24.288h-113.344v-120.608c0-13.376-11.328-24.256-25.216-24.256-13.856 0-25.216 10.88-25.216 24.288v120.608H354.24c-13.92 0-25.184 10.848-25.184 24.288s11.264 24.32 25.184 24.32h113.344v57.12H354.24c-13.92 0-25.184 10.88-25.184 24.32 0 13.376 11.264 24.256 25.184 24.256h113.344v6.464l-80.832 79.36-0.096 0.064-0.064 0.096-0.64 0.64 0.16 0.096a23.552 23.552 0 0 0 0.896 33.504 25.792 25.792 0 0 0 34.72 0.32l0.128 0.128 0.672-0.64 0.128-0.096 0.064-0.096 69.632-68.32 70.016 68.768a25.92 25.92 0 0 0 35.648 0.32 23.68 23.68 0 0 0 0.32-34.368l-80.32-78.752v-7.424h113.344c13.92 0 25.216-10.88 25.216-24.288 0-13.44-11.296-24.32-25.216-24.32h-113.344v-57.12h113.344v-0.064zM492.8 896C317.248 896 161.792 813.76 65.12 687.264l-32.096 17.856c-10.656 5.12-23.616 1.728-29.568-8.192-1.92-3.2-2.56-6.592-2.656-10.016l11.424-115.84c1.152-7.04 4.64-13.376 11.136-16.96a22.464 22.464 0 0 1 20.256-0.48L151.872 600.32a24.96 24.96 0 0 1 9.728 8.608 20.704 20.704 0 0 1-6.56 27.84l-31.68 18.112C208.224 762.24 341.824 832 492.8 832c256.704 0 464.8-200.608 464.8-448 0-247.456-208.096-448-464.8-448-176.608 0-330.144 94.88-408.8 234.656l-60.448-26.112C112.704-17.472 289.216-128 492.8-128 786.144-128 1024 101.216 1024 384c0 282.752-237.856 512-531.2 512z"  horiz-adv-x="1024" />

    
    <glyph glyph-name="ccgl-dingdanshenhe-1" unicode="&#59172;" d="M849.212 407.884v20.389c0 8.738-6.991 15.729-15.729 15.729h-480.015c-8.738 0-15.729-6.991-15.729-15.729v-20.389c0-8.738 6.991-15.729 15.729-15.729h480.015c8.738 0 15.729 6.991 15.729 15.729zM529.395-5.721h-279.038c-35.535 1.165-85.051 40.195-86.217 87.381v672.836c0.582 48.351 40.778 87.381 83.303 89.129h660.603c45.438-0.582 80.974-46.021 81.556-84.468v-399.623h0.582c0-1.165-0.582-1.747-0.582-2.913 0-13.981 11.651-25.632 25.632-25.632 13.981 0 25.632 11.651 25.632 25.632 0 1.165 0 1.747-0.582 2.913v401.954c0 74.565-65.827 135.15-135.15 135.15h-656.525c-65.245 0-135.15-61.167-135.15-135.15v-682.739c0-63.498 68.74-135.15 135.15-135.15h280.785c13.981 0.582 24.467 11.651 24.467 25.632s-10.485 24.467-24.467 25.050zM849.212 652.551c0 8.738-6.991 15.729-15.729 15.729h-480.015c-8.738 0-15.729-6.991-15.729-15.729v-20.389c0-8.738 6.991-15.729 15.729-15.729h480.015c8.738 0 15.729 6.991 15.729 15.729v20.389zM1058.344 182.441c-4.078-1.747-8.156-1.747-11.651-3.495-5.243-2.913-149.713-159.034-224.861-237.677h-1.165c-40.195 41.36-79.808 83.303-120.003 124.665-9.321 9.903-20.972 27.962-40.778 20.972-6.407-1.747-11.651-5.825-14.563-11.651-16.311-21.554 10.485-41.943 22.719-54.759 34.953-36.117 69.323-72.236 104.275-108.353 11.069-11.069 29.71-37.283 46.021-40.195 15.729-2.913 23.884 10.485 30.875 17.476l62.914 65.245c89.129 92.624 80.39 87.381 169.52 180.005 13.981 20.389 1.165 47.769-23.301 47.769zM353.468 220.306c-8.738 0-15.729-6.991-15.729-16.311v-20.972c0-8.738 6.991-15.729 15.729-15.729h128.159c8.738 0 15.729 6.991 15.729 15.729v20.972c0 8.738-6.991 15.729-15.729 15.729h-128.159z"  horiz-adv-x="1194" />

    
    <glyph glyph-name="qq" unicode="&#58880;" d="M506.055 15.807c0-43.506-63.616-78.773-142.089-78.773s-142.089 35.268-142.089 78.773 63.616 78.773 142.089 78.773 142.089-35.268 142.089-78.773zM659.44 94.58c-78.474 0-142.089-35.268-142.089-78.773s63.616-78.773 142.089-78.773 142.089 35.268 142.089 78.773-63.616 78.773-142.089 78.773zM825.904 393.622s-10.753 11.024-22.295 21.221v125.922c0 161.052-130.559 291.611-291.611 291.611s-291.61-130.559-291.61-291.611v-125.922c-11.541-10.197-22.295-21.221-22.295-21.221-19.024-28.537-64.207-102.257-64.207-171.815s19.024-81.449 26.159-82.044c6.617-0.552 31.131 6.063 60.263 50.655 39.426-131.1 154.971-226.037 291.394-226.037 136.639 0 252.337 95.236 291.584 226.658 29.31-45.151 54.020-51.829 60.668-51.276 7.134 0.595 26.159 12.485 26.159 82.044s-45.184 143.278-64.208 171.815zM297.455 343.683c-2.211-15.305-3.473-32.977-3.473-50.944 0-0.065 0-0.13 0-0.195-0-159.236 99.199-288.33 221.567-288.33s221.567 129.094 221.567 288.34c0 0.051 0 0.112 0 0.173 0 17.971-1.262 35.647-3.703 52.945l-435.958-1.99zM435.307 698.609c-32.506 0-58.858-35.734-58.858-79.814s26.351-79.814 58.858-79.814 58.858 35.734 58.858 79.814c0 44.080-26.352 79.814-58.858 79.814zM445.117 585.948c-11.82 0-21.402 14.639-21.402 32.699s9.582 32.699 21.402 32.699c11.82 0 21.402-14.639 21.402-32.699s-9.582-32.699-21.402-32.699zM590.476 698.609c-32.506 0-58.858-35.734-58.858-79.814s26.351-79.814 58.858-79.814 58.858 35.734 58.858 79.814c-0.001 44.080-26.352 79.814-58.858 79.814zM600.409 615.822l-0.031-0.005c0.001-0.021 0.024-0.034 0.024-0.055 0-0.896-0.727-1.623-1.623-1.623-0.739 0-1.26 0.544-1.455 1.219l-0.062-0.009v-0.149c-3.748 9.332-10.383 15.635-18.080 15.635-7.693 0-14.325-6.296-18.075-15.621l-0.059 0.037-0.055 0.012c-0.264-0.558-0.722-1.003-1.38-1.003-0-0-0.001-0-0.001-0-0.91 0-1.648 0.738-1.648 1.648 0 0 0 0.001 0 0.001-0 0.016 0.017 0.026 0.017 0.041l-0.036 0.008c-0.058 0.895-0.167 1.768-0.167 2.688 0 18.059 9.582 32.699 21.402 32.699s21.402-14.639 21.402-32.699c0-0.966-0.111-1.884-0.174-2.823zM281.188 359.734c-5.351-26.753-16.646-146.845-11.296-173.599s27.855-22.286 60.047-22.592c31.212-0.297 67.775-8.918 68.369 30.321 0.595 39.238 0.595 116.525 9.513 145.062 8.917 28.537-126.632 20.808-126.632 20.808zM274.071 302.412l125.538-40.585c1.090 30.821 3.295 61.369 8.211 77.101 8.918 28.537-126.632 20.808-126.632 20.808-1.948-9.74-4.684-31.851-7.117-57.324zM512.595 428.104c97.846 0 177.166 35.671 177.166 57.668 0 16.646-79.32 33.888-177.166 33.888-97.845 0-177.166-15.458-177.166-33.888 0-20.809 79.32-57.668 177.166-57.668zM514.378 406.701s112.363-1.189 202.136 36.861c89.772 38.049 88.88 42.359 98.69 42.359 9.809 0 21.402-14.124 26.307-39.611 4.905-25.487 10.702-45.552-10.256-58.038-20.956-12.484-158.29-93.19-313.013-93.19h-7.729c-154.723 0-292.057 80.706-313.013 93.19s-15.16 32.549-10.256 58.038c4.905 25.487 16.498 39.611 26.307 39.611s8.918-4.31 98.69-42.359 202.137-36.861 202.137-36.861z"  horiz-adv-x="1024" />

    
    <glyph glyph-name="icon-test" unicode="&#58905;" d="M174.5 763.688h21.094v-759.375h-21.094zM195.594 763.688h21.094v-759.375h-21.094zM596.375 763.688h21.094v-759.375h-21.094zM575.281 763.688h21.094v-759.375h-21.094zM849.5 426.188h21.094v-421.875h-21.094zM870.594 426.188h21.094v-421.875h-21.094zM174.5 763.688h442.969v-21.094h-442.969zM174.5 742.594h442.969v-21.094h-442.969zM90.125 25.406h843.75v-21.094h-843.75zM90.125 46.5h843.75v-21.094h-843.75zM617.469 426.188h253.125v-21.094h-253.125zM617.469 405.094h253.125v-21.094h-253.125zM659.656 299.625h147.656v-42.188h-147.656zM659.656 173.062h147.656v-42.188h-147.656zM250.437 453.609l111.797-69.609 185.625 179.297s16.875 12.656 10.547-6.328-160.313-278.438-194.063-274.219-122.344 164.531-122.344 164.531 0 14.766 8.438 6.328z"  horiz-adv-x="1024" />

    
    <glyph glyph-name="shouji1" unicode="&#58907;" d="M770.33-83.001h-516.66c-16.99 0-30.673 13.912-30.673 31.13v871.856c0 17.218 13.684 31.13 30.673 31.13h516.66c16.99 0 30.673-13.912 30.673-31.13v-871.856c0-17.218-13.797-31.13-30.673-31.13zM770.33 804.364c0 8.552-6.842 15.622-15.394 15.622h-485.987c-8.438 0-15.394-7.070-15.394-15.622v-840.727c0-8.666 6.842-15.622 15.394-15.622h485.987c8.438 0 15.394 6.955 15.394 15.622v840.727zM706.132 103.777h-393.852c-16.99 0-30.673 13.912-30.673 31.13v591.577c0 17.218 13.797 31.13 30.673 31.13h393.852c16.99 0 30.673-13.912 30.673-31.13v-591.577c0-17.218-13.684-31.13-30.673-31.13zM708.983 710.975c0 8.552-6.842 15.508-15.394 15.508h-363.178c-8.438 0-15.394-6.955-15.394-15.508v-560.447c0-8.666 6.842-15.508 15.394-15.508h363.178c8.438 0 15.394 6.955 15.394 15.508v560.447zM528.477 773.234h-30.673c-8.438 0-15.394 6.955-15.394 15.622 0 8.552 6.842 15.508 15.394 15.508h30.673c8.438 0 15.279-6.955 15.279-15.508 0.114-8.666-6.728-15.622-15.279-15.622zM513.197 72.647c25.428 0 46.067-20.981 46.067-46.751s-20.639-46.751-46.067-46.751c-25.428 0-46.067 20.981-46.067 46.751s20.639 46.751 46.067 46.751zM513.197 10.388c8.438 0 15.394 6.955 15.394 15.622 0 8.552-6.842 15.622-15.394 15.622-8.438 0-15.394-6.955-15.394-15.622s6.842-15.622 15.394-15.622z"  horiz-adv-x="1024" />

    
    <glyph glyph-name="arrow-right" unicode="&#58886;" d="M297.644-62.293c-9.403-0.001-18.791 3.688-25.812 11.013-13.658 14.254-13.177 36.881 1.076 50.539l401.734 384.996-401.735 384.993c-14.253 13.659-14.734 36.285-1.075 50.538 13.659 14.252 36.285 14.734 50.538 1.075l428.663-410.801c7.035-6.742 11.013-16.063 11.013-25.807s-3.978-19.065-11.013-25.807l-428.663-410.803c-6.927-6.637-15.834-9.937-24.725-9.937z"  horiz-adv-x="1024" />

    
    <glyph glyph-name="icon_jinbi" unicode="&#58933;" d="M531.439 148.886h-0.796c-55.398 2.238-108.445 8.835-153.378 19.111-10.201 2.352-16.608 12.476-14.257 22.713 2.352 10.239 12.551 16.645 22.713 14.257 42.695-9.745 93.354-16.039 146.477-18.163 10.465-0.455 18.579-9.251 18.162-19.718-0.417-10.199-8.797-18.2-18.921-18.2zM629.647 137.738c-10.011 0-18.314 7.773-18.921 17.86-0.645 10.427 7.356 19.452 17.822 20.02 160.241 9.404 245.595 53.426 245.595 81.562 0 10.465 8.494 18.959 18.959 18.959s18.96-8.493 18.96-18.959c0-71.058-141.283-111.214-281.276-119.403-0.419-0.039-0.76-0.039-1.139-0.039zM570.192 225.783c-41.445 0-82.093 2.426-120.845 7.28-10.389 1.289-17.746 10.768-16.456 21.158 1.289 10.389 10.693 17.898 21.158 16.494 83.192-10.351 177.191-9.099 256.174 3.3 10.276 1.364 20.021-5.461 21.651-15.813 1.63-10.313-5.498-20.02-15.812-21.651-45.54-7.128-94.644-10.768-145.87-10.768zM796.94 255.208a19.043 19.043 0 0 0-18.125 13.309c-3.11 10.011 2.426 20.628 12.437 23.775 61.124 19.112 82.852 41.445 82.852 54.754 0 32.269-114.21 80.955-293.144 83.798-10.465 0.152-18.808 8.796-18.656 19.263 0.19 10.465 8.948 19.415 19.263 18.656 164.222-2.616 330.493-45.274 330.493-121.717 0-25.899-18.997-62.678-109.432-90.965-1.896-0.645-3.829-0.873-5.688-0.873zM196.965 45.635c-12.74-0.038-24.306 3.526-33.9 11.868-7.925 6.863-8.758 18.845-1.934 26.732 6.863 7.925 18.845 8.758 26.732 1.934 10.427-8.987 55.474 2.238 132.295 70.263 44.858 39.473 91.951 90.548 136.278 147.728 128.05 165.588 173.399 302.548 148.373 324.124-7.925 6.825-8.835 18.807-2.009 26.732 6.863 7.886 18.769 8.835 26.732 2.009 58.204-50.089-27.945-227.09-143.141-376.07-45.766-59.076-94.567-111.934-141.13-152.923-38.297-33.975-101.24-82.397-148.296-82.397zM131.67 102.436c-16.987 0-28.059 6.256-34.618 11.868-58.28 50.166 27.908 227.054 143.141 375.882C344.05 624.302 457.121 718.718 521.544 725.163c21.158 2.162 34.467-5.119 41.937-11.527 27.68-23.698 25.404-74.888-7.015-152.164-4.019-9.669-15.053-14.219-24.798-10.162-9.631 4.019-14.219 15.128-10.162 24.797 30.145 71.931 24.457 102.569 17.252 108.749-2.73 2.389-7.242 3.185-13.499 2.578-45.463-4.55-147.691-81.751-255.15-220.455C142.022 301.582 96.672 164.622 121.698 143.047c2.692-2.313 7.242-3.185 13.536-2.503 45.54 4.588 147.766 81.789 255.037 220.455 28.438 36.705 54.299 74.016 76.821 110.873 5.46 8.986 17.139 11.755 26.05 6.332 8.948-5.461 11.793-17.139 6.333-26.051-23.244-38.108-49.9-76.595-79.211-114.361-103.667-134.002-216.663-228.455-281.2-234.977-2.54-0.265-5.005-0.379-7.394-0.379zM179.484 50.11a18.88 18.88 0 0 0-12.323 4.55l-67.873 57.938c-7.963 6.788-8.911 18.732-2.124 26.695 6.863 8 18.807 8.91 26.732 2.123l67.873-57.938c7.963-6.788 8.91-18.731 2.124-26.694a18.9 18.9 0 0 0-14.409-6.674zM622.253 620.927c-4.36 0-8.759 1.516-12.323 4.55l-67.684 57.976c-7.963 6.825-8.873 18.807-2.086 26.732 6.863 7.963 18.845 8.834 26.732 2.085l67.684-57.976c7.963-6.825 8.872-18.807 2.085-26.731-3.754-4.399-9.1-6.636-14.408-6.636zM892.835 132.467c-10.464 0-18.959 8.494-18.959 18.96l-0.152 189.742c0 10.464 8.494 18.959 18.96 18.959 10.464 0 18.959-8.494 18.959-18.959l0.152-189.742c-0.001-10.428-8.456-18.96-18.96-18.96zM570.344 45.559c-107.688 0-209.421 16.836-272.176 45.047-9.555 4.284-13.802 15.508-9.517 25.063 4.284 9.555 15.432 13.916 25.063 9.518 58.09-26.087 154.06-41.71 256.63-41.71 185.533 0 303.912 49.332 303.912 83.268 0 10.464 8.494 18.959 18.96 18.959 10.464 0 18.959-8.494 18.959-18.959-0.002-79.551-171.959-121.186-341.831-121.186z"  horiz-adv-x="1024" />

    
    <glyph glyph-name="chongzhi" unicode="&#58897;" d="M414.826667 406.272c23.978667-53.482667 56.917333-97.024 98.154666-129.685333 46.4 36.544 82.325333 80.106667 106.986667 129.685333h-205.141333zM512 833.621333C263.68 833.621333 62.378667 632.341333 62.378667 384c0-248.298667 201.322667-449.6 449.621333-449.6 248.298667 0 449.621333 201.322667 449.621333 449.6 0 248.341333-201.322667 449.621333-449.621333 449.621333z m275.328-668.821333a532.458667 532.458667 0 0 1-30.272-46.165333l-3.797333-6.677334-7.552 1.493334c-100.522667 19.882667-179.754667 48.213333-235.690667 84.224-59.136-35.370667-139.498667-66.389333-238.954667-92.224l-8.832-2.282667-3.626666 8.384a215.466667 215.466667 0 0 1-22.677334 40.768l-9.557333 13.12 15.850667 3.562667c89.237333 19.968 161.066667 43.861333 213.824 71.125333-46.464 43.221333-83.541333 99.029333-110.442667 166.165333h-57.024v60.885334h192.832v58.837333H235.541333v60.885333h245.909334v77.994667h65.749333v-77.994667h234.538667v-60.885333H547.2v-58.837333h152.746667l-0.938667-52.437334c-30.741333-67.989333-74.026667-126.314667-128.704-173.610666 55.658667-27.456 126.165333-47.466667 209.877333-59.52l17.408-2.517334-10.261333-14.293333z"  horiz-adv-x="1024" />

    
    <glyph glyph-name="laba" unicode="&#59024;" d="M168.832 614.336H45.824c-26.752 0-45.824-23.36-45.824-46.72v-318.976c0-27.2 22.912-46.656 45.824-46.656h129.856c7.36 0 14.08 1.472 20.032 4.096l354.24-284.16c30.528-23.36 76.352-3.84 76.352 35.008l7.68 894.72c0 34.944-42.048 58.24-72.576 34.944L168.832 614.4z m579.712-388.992c-7.68 0-15.296 3.84-22.912 7.744-15.296 11.712-19.072 38.912-7.68 54.464 26.752 38.912 42.048 81.728 42.048 128.384 0 35.008-7.68 70.016-26.752 101.12-11.456 19.456-3.84 42.816 15.296 50.56 19.072 11.712 41.984 3.904 49.664-15.552a288 288 0 0 0 34.368-136.128c0-66.112-19.136-124.48-61.12-175.04 0-7.808-11.456-15.552-22.912-15.552z m106.88-136.128a42.88 42.88 0 0 0-30.464 11.648c-15.36 15.552-11.52 38.912 3.84 54.4a339.52 339.52 0 0 1 118.4 256.768 338.688 338.688 0 0 1-95.552 237.312 38.08 38.08 0 0 0 0 54.4 36.48 36.48 0 0 0 53.504 0 416.064 416.064 0 0 0 118.4-291.712 425.28 425.28 0 0 0-141.312-315.072c-7.68-7.744-19.136-7.744-26.752-7.744z"  horiz-adv-x="1024" />

    
    <glyph glyph-name="shoucang-shoucang" unicode="&#58893;" d="M983.481 491.351c-8.765 29.146-31.901 50.016-60.446 54.547l-236.741 43.915-105.783 224.491c-12.317 27.173-39.183 44.894-67.911 44.894-28.921 0-55.037-17.131-68.097-44.703l-105.777-224.885-236.189-45.292c-28.729-4.526-52.046-25.598-60.816-54.543-8.957-28.752-1.306-61.243 19.589-82.704l169.958-165.609-44.588-241.431v-0.192c-4.852-30.129 7.089-60.849 30.221-78.177 22.574-17.328 55.219-20.089 79.286-6.701l216.413 111.657 214.546-111.456c9.399-5.312 20.569-8.608 32.467-9.028l-5.046-0.035h7.838c15.859 0 31.526 5.511 44.4 15.355 23.506 17.722 35.449 48.841 30.409 78.969l-43.094 241.033 170.511 167.975c20.343 20.871 27.806 53.165 18.849 81.917z"  horiz-adv-x="1024" />

    
    <glyph glyph-name="jiantou_down" unicode="&#59428;" d="M531.714 153.149l421.134 421.103c12.22300001 12.256 12.223 32.062 0 44.317-12.255 12.255-32.093 12.255-44.348 1e-8l-400.575-400.54400001-393.962 393.93c-11.879 11.91-31.15400001 11.91-43.03200001 0-11.942-11.878-11.941-31.15400001 1e-8-43.061l409.1-409.131c1.598-1.598 3.542-2.382 5.391-3.543 0.72099999-0.971 1.097-2.163 2.00500001-3.072 12.223-12.223 32.063-12.223 44.28599999 0z"  horiz-adv-x="1024" />

    


  </font>
</defs>
</svg>
